<svg width="32" height="32" viewBox="0 0 32 32" fill="none" xmlns="http://www.w3.org/2000/svg">
<path d="M22.6667 4.66663H9.33332C5.33332 4.66663 2.66666 6.66663 2.66666 11.3333V20.6666C2.66666 25.3333 5.33332 27.3333 9.33332 27.3333H22.6667C26.6667 27.3333 29.3333 25.3333 29.3333 20.6666V11.3333C29.3333 6.66663 26.6667 4.66663 22.6667 4.66663ZM23.2933 12.7866L19.12 16.12C18.24 16.8266 17.12 17.1733 16 17.1733C14.88 17.1733 13.7467 16.8266 12.88 16.12L8.70666 12.7866C8.27999 12.44 8.21332 11.8 8.54666 11.3733C8.89332 10.9466 9.51999 10.8666 9.94666 11.2133L14.12 14.5466C15.1333 15.36 16.8533 15.36 17.8667 14.5466L22.04 11.2133C22.4667 10.8666 23.1067 10.9333 23.44 11.3733C23.7867 11.8 23.72 12.44 23.2933 12.7866Z" fill="#7562E0"/>
</svg>
