<svg width="20" height="20" viewBox="0 0 20 20" fill="none" xmlns="http://www.w3.org/2000/svg">
<path d="M17.7083 7.62494C15.7833 4.59994 12.9667 2.85828 9.99999 2.85828C8.51666 2.85828 7.07499 3.29161 5.75832 4.09994C4.44166 4.91661 3.25832 6.10828 2.29166 7.62494C1.45832 8.93328 1.45832 11.0583 2.29166 12.3666C4.21666 15.3999 7.03332 17.1333 9.99999 17.1333C11.4833 17.1333 12.925 16.6999 14.2417 15.8916C15.5583 15.0749 16.7417 13.8833 17.7083 12.3666C18.5417 11.0666 18.5417 8.93328 17.7083 7.62494ZM9.99999 13.3666C8.13332 13.3666 6.63332 11.8583 6.63332 9.99994C6.63332 8.14161 8.13332 6.63328 9.99999 6.63328C11.8667 6.63328 13.3667 8.14161 13.3667 9.99994C13.3667 11.8583 11.8667 13.3666 9.99999 13.3666Z" fill="white"/>
<path d="M10 7.6167C8.69167 7.6167 7.625 8.68337 7.625 10C7.625 11.3084 8.69167 12.375 10 12.375C11.3083 12.375 12.3833 11.3084 12.3833 10C12.3833 8.6917 11.3083 7.6167 10 7.6167Z" fill="white"/>
</svg>
