<svg width="32" height="32" viewBox="0 0 32 32" fill="none" xmlns="http://www.w3.org/2000/svg">
<path d="M29.3334 21.5866C29.3334 26.44 26.44 29.3333 21.5867 29.3333H20C19.2667 29.3333 18.6667 28.7333 18.6667 28V20.3066C18.6667 19.9466 18.96 19.64 19.32 19.64L21.6667 19.6C21.8534 19.5866 22.0134 19.4533 22.0534 19.2666L22.52 16.72C22.56 16.48 22.3734 16.2533 22.12 16.2533L19.28 16.2933C18.9067 16.2933 18.6134 16 18.6 15.64L18.5467 12.3733C18.5467 12.16 18.72 11.9733 18.9467 11.9733L22.1467 11.92C22.3733 11.92 22.5467 11.7466 22.5467 11.52L22.4933 8.31995C22.4933 8.09328 22.32 7.91996 22.0934 7.91996L18.4933 7.97331C16.28 8.01331 14.52 9.82662 14.56 12.04L14.6267 15.7066C14.64 16.08 14.3467 16.3733 13.9734 16.3866L12.3734 16.4133C12.1467 16.4133 11.9734 16.5866 11.9734 16.8133L12.0134 19.3466C12.0134 19.5733 12.1867 19.7466 12.4134 19.7466L14.0134 19.72C14.3867 19.72 14.68 20.0133 14.6933 20.3733L14.8133 27.9733C14.8267 28.72 14.2267 29.3333 13.48 29.3333H10.4134C5.56002 29.3333 2.66669 26.44 2.66669 21.5733V10.4133C2.66669 5.55996 5.56002 2.66663 10.4134 2.66663H21.5867C26.44 2.66663 29.3334 5.55996 29.3334 10.4133V21.5866Z" fill="#7562E0"/>
</svg>
