<svg width="246" height="29" viewBox="0 0 246 29" fill="none" xmlns="http://www.w3.org/2000/svg">
<path d="M0.597656 0.683594H10.373C12.1777 0.674479 13.7318 0.833984 15.0352 1.16211C16.3477 1.48112 17.4277 1.94141 18.2754 2.54297C19.123 3.14453 19.7474 3.86914 20.1484 4.7168C20.5586 5.55534 20.7637 6.48958 20.7637 7.51953C20.7637 8.42188 20.5723 9.28776 20.1895 10.1172C19.8158 10.9375 19.2324 11.6621 18.4395 12.291C17.6556 12.9199 16.653 13.4212 15.4316 13.7949C14.2194 14.1686 12.7747 14.3555 11.0977 14.3555H8.5V21H0.597656V0.683594ZM8.5 11.375C9.12891 11.3659 9.68945 11.2702 10.1816 11.0879C10.6738 10.8965 11.0885 10.6367 11.4258 10.3086C11.763 9.97135 12.0182 9.57031 12.1914 9.10547C12.3737 8.63151 12.4648 8.10286 12.4648 7.51953C12.4648 6.94531 12.3737 6.42578 12.1914 5.96094C12.0091 5.49609 11.7448 5.09961 11.3984 4.77148C11.0612 4.43424 10.6465 4.16992 10.1543 3.97852C9.67122 3.78711 9.11979 3.68229 8.5 3.66406V11.375ZM27.2856 7.896C27.7896 7.07467 28.4429 6.43067 29.2456 5.964C30.0669 5.49733 31.0003 5.264 32.0456 5.264V9.38H31.0096C29.7776 9.38 28.8443 9.66933 28.2096 10.248C27.5936 10.8267 27.2856 11.8347 27.2856 13.272V21H23.3656V5.488H27.2856V7.896ZM41.5739 21.252C40.0806 21.252 38.7366 20.9253 37.5419 20.272C36.3472 19.6 35.4046 18.6573 34.7139 17.444C34.0419 16.2307 33.7059 14.8307 33.7059 13.244C33.7059 11.6573 34.0512 10.2573 34.7419 9.044C35.4512 7.83067 36.4126 6.89733 37.6259 6.244C38.8392 5.572 40.1926 5.236 41.6859 5.236C43.1792 5.236 44.5326 5.572 45.7459 6.244C46.9592 6.89733 47.9112 7.83067 48.6019 9.044C49.3112 10.2573 49.6659 11.6573 49.6659 13.244C49.6659 14.8307 49.3019 16.2307 48.5739 17.444C47.8646 18.6573 46.8939 19.6 45.6619 20.272C44.4486 20.9253 43.0859 21.252 41.5739 21.252ZM41.5739 17.836C42.2832 17.836 42.9459 17.668 43.5619 17.332C44.1966 16.9773 44.7006 16.4547 45.0739 15.764C45.4472 15.0733 45.6339 14.2333 45.6339 13.244C45.6339 11.7693 45.2419 10.64 44.4579 9.856C43.6926 9.05333 42.7499 8.652 41.6299 8.652C40.5099 8.652 39.5672 9.05333 38.8019 9.856C38.0552 10.64 37.6819 11.7693 37.6819 13.244C37.6819 14.7187 38.0459 15.8573 38.7739 16.66C39.5206 17.444 40.4539 17.836 41.5739 17.836ZM59.8789 0.683594H69.6543C71.459 0.674479 73.013 0.833984 74.3164 1.16211C75.6289 1.48112 76.709 1.94141 77.5566 2.54297C78.4043 3.14453 79.0286 3.86914 79.4297 4.7168C79.8398 5.55534 80.0449 6.48958 80.0449 7.51953C80.0449 8.42188 79.8535 9.28776 79.4707 10.1172C79.097 10.9375 78.5137 11.6621 77.7207 12.291C76.9368 12.9199 75.9342 13.4212 74.7129 13.7949C73.5007 14.1686 72.056 14.3555 70.3789 14.3555H67.7812V21H59.8789V0.683594ZM67.7812 11.375C68.4102 11.3659 68.9707 11.2702 69.4629 11.0879C69.9551 10.8965 70.3698 10.6367 70.707 10.3086C71.0443 9.97135 71.2995 9.57031 71.4727 9.10547C71.6549 8.63151 71.7461 8.10286 71.7461 7.51953C71.7461 6.94531 71.6549 6.42578 71.4727 5.96094C71.2904 5.49609 71.026 5.09961 70.6797 4.77148C70.3424 4.43424 69.9277 4.16992 69.4355 3.97852C68.9525 3.78711 68.401 3.68229 67.7812 3.66406V11.375ZM86.5668 7.896C87.0708 7.07467 87.7242 6.43067 88.5268 5.964C89.3482 5.49733 90.2815 5.264 91.3268 5.264V9.38H90.2908C89.0588 9.38 88.1255 9.66933 87.4908 10.248C86.8748 10.8267 86.5668 11.8347 86.5668 13.272V21H82.6468V5.488H86.5668V7.896ZM100.855 21.252C99.3618 21.252 98.0178 20.9253 96.8232 20.272C95.6285 19.6 94.6858 18.6573 93.9952 17.444C93.3232 16.2307 92.9872 14.8307 92.9872 13.244C92.9872 11.6573 93.3325 10.2573 94.0232 9.044C94.7325 7.83067 95.6938 6.89733 96.9072 6.244C98.1205 5.572 99.4738 5.236 100.967 5.236C102.46 5.236 103.814 5.572 105.027 6.244C106.24 6.89733 107.192 7.83067 107.883 9.044C108.592 10.2573 108.947 11.6573 108.947 13.244C108.947 14.8307 108.583 16.2307 107.855 17.444C107.146 18.6573 106.175 19.6 104.943 20.272C103.73 20.9253 102.367 21.252 100.855 21.252ZM100.855 17.836C101.564 17.836 102.227 17.668 102.843 17.332C103.478 16.9773 103.982 16.4547 104.355 15.764C104.728 15.0733 104.915 14.2333 104.915 13.244C104.915 11.7693 104.523 10.64 103.739 9.856C102.974 9.05333 102.031 8.652 100.911 8.652C99.7912 8.652 98.8485 9.05333 98.0832 9.856C97.3365 10.64 96.9632 11.7693 96.9632 13.244C96.9632 14.7187 97.3272 15.8573 98.0552 16.66C98.8018 17.444 99.7352 17.836 100.855 17.836ZM117.899 5.236C119.056 5.236 120.073 5.46933 120.951 5.936C121.828 6.384 122.519 6.972 123.023 7.7V5.488H126.971V21.112C126.971 22.5493 126.681 23.828 126.103 24.948C125.524 26.0867 124.656 26.9827 123.499 27.636C122.341 28.308 120.941 28.644 119.299 28.644C117.096 28.644 115.285 28.1307 113.867 27.104C112.467 26.0773 111.673 24.6773 111.487 22.904H115.379C115.584 23.6133 116.023 24.1733 116.695 24.584C117.385 25.0133 118.216 25.228 119.187 25.228C120.325 25.228 121.249 24.8827 121.959 24.192C122.668 23.52 123.023 22.4933 123.023 21.112V18.704C122.519 19.432 121.819 20.0387 120.923 20.524C120.045 21.0093 119.037 21.252 117.899 21.252C116.592 21.252 115.397 20.916 114.315 20.244C113.232 19.572 112.373 18.6293 111.739 17.416C111.123 16.184 110.815 14.7747 110.815 13.188C110.815 11.62 111.123 10.2293 111.739 9.016C112.373 7.80267 113.223 6.86933 114.287 6.216C115.369 5.56267 116.573 5.236 117.899 5.236ZM123.023 13.244C123.023 12.292 122.836 11.48 122.463 10.808C122.089 10.1173 121.585 9.59467 120.951 9.24C120.316 8.86667 119.635 8.68 118.907 8.68C118.179 8.68 117.507 8.85733 116.891 9.212C116.275 9.56667 115.771 10.0893 115.379 10.78C115.005 11.452 114.819 12.2547 114.819 13.188C114.819 14.1213 115.005 14.9427 115.379 15.652C115.771 16.3427 116.275 16.8747 116.891 17.248C117.525 17.6213 118.197 17.808 118.907 17.808C119.635 17.808 120.316 17.6307 120.951 17.276C121.585 16.9027 122.089 16.38 122.463 15.708C122.836 15.0173 123.023 14.196 123.023 13.244ZM134.719 7.896C135.223 7.07467 135.877 6.43067 136.679 5.964C137.501 5.49733 138.434 5.264 139.479 5.264V9.38H138.443C137.211 9.38 136.278 9.66933 135.643 10.248C135.027 10.8267 134.719 11.8347 134.719 13.272V21H130.799V5.488H134.719V7.896ZM141.111 13.188C141.111 11.62 141.419 10.2293 142.035 9.016C142.67 7.80267 143.52 6.86933 144.584 6.216C145.666 5.56267 146.87 5.236 148.196 5.236C149.353 5.236 150.361 5.46933 151.22 5.936C152.097 6.40267 152.797 6.99067 153.32 7.7V5.488H157.268V21H153.32V18.732C152.816 19.46 152.116 20.0667 151.22 20.552C150.342 21.0187 149.325 21.252 148.168 21.252C146.861 21.252 145.666 20.916 144.584 20.244C143.52 19.572 142.67 18.6293 142.035 17.416C141.419 16.184 141.111 14.7747 141.111 13.188ZM153.32 13.244C153.32 12.292 153.133 11.48 152.76 10.808C152.386 10.1173 151.882 9.59467 151.248 9.24C150.613 8.86667 149.932 8.68 149.204 8.68C148.476 8.68 147.804 8.85733 147.188 9.212C146.572 9.56667 146.068 10.0893 145.676 10.78C145.302 11.452 145.116 12.2547 145.116 13.188C145.116 14.1213 145.302 14.9427 145.676 15.652C146.068 16.3427 146.572 16.8747 147.188 17.248C147.822 17.6213 148.494 17.808 149.204 17.808C149.932 17.808 150.613 17.6307 151.248 17.276C151.882 16.9027 152.386 16.38 152.76 15.708C153.133 15.0173 153.32 14.196 153.32 13.244ZM180.36 5.264C182.264 5.264 183.795 5.852 184.952 7.028C186.128 8.18533 186.716 9.80933 186.716 11.9V21H182.796V12.432C182.796 11.2187 182.488 10.2947 181.872 9.66C181.256 9.00667 180.416 8.68 179.352 8.68C178.288 8.68 177.439 9.00667 176.804 9.66C176.188 10.2947 175.88 11.2187 175.88 12.432V21H171.96V12.432C171.96 11.2187 171.652 10.2947 171.036 9.66C170.42 9.00667 169.58 8.68 168.516 8.68C167.433 8.68 166.575 9.00667 165.94 9.66C165.324 10.2947 165.016 11.2187 165.016 12.432V21H161.096V5.488H165.016V7.364C165.52 6.71067 166.164 6.19733 166.948 5.824C167.751 5.45067 168.628 5.264 169.58 5.264C170.793 5.264 171.876 5.52533 172.828 6.048C173.78 6.552 174.517 7.28 175.04 8.232C175.544 7.336 176.272 6.61733 177.224 6.076C178.195 5.53467 179.24 5.264 180.36 5.264ZM209.7 5.264C211.604 5.264 213.135 5.852 214.292 7.028C215.468 8.18533 216.056 9.80933 216.056 11.9V21H212.136V12.432C212.136 11.2187 211.828 10.2947 211.212 9.66C210.596 9.00667 209.756 8.68 208.692 8.68C207.628 8.68 206.779 9.00667 206.144 9.66C205.528 10.2947 205.22 11.2187 205.22 12.432V21H201.3V12.432C201.3 11.2187 200.992 10.2947 200.376 9.66C199.76 9.00667 198.92 8.68 197.856 8.68C196.773 8.68 195.915 9.00667 195.28 9.66C194.664 10.2947 194.356 11.2187 194.356 12.432V21H190.436V5.488H194.356V7.364C194.86 6.71067 195.504 6.19733 196.288 5.824C197.091 5.45067 197.968 5.264 198.92 5.264C200.133 5.264 201.216 5.52533 202.168 6.048C203.12 6.552 203.857 7.28 204.38 8.232C204.884 7.336 205.612 6.61733 206.564 6.076C207.535 5.53467 208.58 5.264 209.7 5.264ZM234.196 12.908C234.196 13.468 234.158 13.972 234.084 14.42H222.744C222.837 15.54 223.229 16.4173 223.92 17.052C224.61 17.6867 225.46 18.004 226.468 18.004C227.924 18.004 228.96 17.3787 229.576 16.128H233.804C233.356 17.6213 232.497 18.8533 231.228 19.824C229.958 20.776 228.4 21.252 226.552 21.252C225.058 21.252 223.714 20.9253 222.52 20.272C221.344 19.6 220.42 18.6573 219.748 17.444C219.094 16.2307 218.768 14.8307 218.768 13.244C218.768 11.6387 219.094 10.2293 219.748 9.016C220.401 7.80267 221.316 6.86933 222.492 6.216C223.668 5.56267 225.021 5.236 226.552 5.236C228.026 5.236 229.342 5.55333 230.5 6.188C231.676 6.82267 232.581 7.728 233.216 8.904C233.869 10.0613 234.196 11.396 234.196 12.908ZM230.136 11.788C230.117 10.78 229.753 9.97733 229.044 9.38C228.334 8.764 227.466 8.456 226.44 8.456C225.469 8.456 224.648 8.75467 223.976 9.352C223.322 9.93067 222.921 10.7427 222.772 11.788H230.136ZM240.977 7.896C241.481 7.07467 242.134 6.43067 242.937 5.964C243.758 5.49733 244.692 5.264 245.737 5.264V9.38H244.701C243.469 9.38 242.536 9.66933 241.901 10.248C241.285 10.8267 240.977 11.8347 240.977 13.272V21H237.057V5.488H240.977V7.896Z" fill="#7562E0"/>
</svg>
