<svg width="42" height="42" viewBox="0 0 42 42" fill="none" xmlns="http://www.w3.org/2000/svg">
<mask id="path-1-inside-1_2_89" fill="white">
<path d="M32.3225 39.8125H25.3225C21.0875 39.8125 18.76 37.485 18.76 33.25V8.75C18.76 4.515 21.0875 2.1875 25.3225 2.1875H32.3225C36.5575 2.1875 38.885 4.515 38.885 8.75V33.25C38.885 37.485 36.54 39.8125 32.3225 39.8125ZM25.3225 4.8125C22.5575 4.8125 21.385 5.985 21.385 8.75V33.25C21.385 36.015 22.5575 37.1875 25.3225 37.1875H32.3225C35.0875 37.1875 36.26 36.015 36.26 33.25V8.75C36.26 5.985 35.0875 4.8125 32.3225 4.8125H25.3225Z"/>
</mask>
<path d="M32.3225 36.8125H25.3225V42.8125H32.3225V36.8125ZM25.3225 36.8125C23.7395 36.8125 22.962 36.3856 22.5745 35.9981C22.1869 35.6105 21.76 34.833 21.76 33.25H15.76C15.76 35.902 16.4969 38.4057 18.3318 40.2407C20.1668 42.0756 22.6705 42.8125 25.3225 42.8125V36.8125ZM21.76 33.25V8.75H15.76V33.25H21.76ZM21.76 8.75C21.76 7.16696 22.1869 6.38949 22.5745 6.00195C22.962 5.6144 23.7395 5.1875 25.3225 5.1875V-0.8125C22.6705 -0.8125 20.1668 -0.0756502 18.3318 1.7593C16.4969 3.59426 15.76 6.09804 15.76 8.75H21.76ZM25.3225 5.1875H32.3225V-0.8125H25.3225V5.1875ZM32.3225 5.1875C33.9055 5.1875 34.683 5.6144 35.0706 6.00195C35.4581 6.38949 35.885 7.16696 35.885 8.75H41.885C41.885 6.09804 41.1482 3.59426 39.3132 1.7593C37.4782 -0.0756502 34.9745 -0.8125 32.3225 -0.8125V5.1875ZM35.885 8.75V33.25H41.885V8.75H35.885ZM35.885 33.25C35.885 34.8271 35.457 35.6058 35.0661 35.996C34.6742 36.3871 33.8938 36.8125 32.3225 36.8125V42.8125C34.9687 42.8125 37.4696 42.0741 39.3046 40.2428C41.1405 38.4104 41.885 35.9079 41.885 33.25H35.885ZM25.3225 1.8125C23.6012 1.8125 21.6536 2.16505 20.1956 3.62305C18.7376 5.08106 18.385 7.0287 18.385 8.75H24.385C24.385 7.7063 24.6187 7.68519 24.4382 7.8657C24.2577 8.0462 24.2788 7.8125 25.3225 7.8125V1.8125ZM18.385 8.75V33.25H24.385V8.75H18.385ZM18.385 33.25C18.385 34.9713 18.7376 36.9189 20.1956 38.3769C21.6536 39.8349 23.6012 40.1875 25.3225 40.1875V34.1875C24.2788 34.1875 24.2577 33.9538 24.4382 34.1343C24.6187 34.3148 24.385 34.2937 24.385 33.25H18.385ZM25.3225 40.1875H32.3225V34.1875H25.3225V40.1875ZM32.3225 40.1875C34.0438 40.1875 35.9914 39.8349 37.4495 38.3769C38.9075 36.9189 39.26 34.9713 39.26 33.25H33.26C33.26 34.2937 33.0263 34.3148 33.2068 34.1343C33.3873 33.9538 33.3662 34.1875 32.3225 34.1875V40.1875ZM39.26 33.25V8.75H33.26V33.25H39.26ZM39.26 8.75C39.26 7.0287 38.9075 5.08106 37.4495 3.62305C35.9914 2.16505 34.0438 1.8125 32.3225 1.8125V7.8125C33.3662 7.8125 33.3873 8.0462 33.2068 7.8657C33.0263 7.68519 33.26 7.7063 33.26 8.75H39.26ZM32.3225 1.8125H25.3225V7.8125H32.3225V1.8125Z" fill="white" mask="url(#path-1-inside-1_2_89)"/>
<mask id="path-3-inside-2_2_89" fill="white">
<path d="M28.8225 11.8125H20.0725C19.355 11.8125 18.76 11.2175 18.76 10.5C18.76 9.7825 19.355 9.1875 20.0725 9.1875H28.8225C29.54 9.1875 30.135 9.7825 30.135 10.5C30.135 11.2175 29.54 11.8125 28.8225 11.8125Z"/>
</mask>
<path d="M28.8225 8.8125H20.0725V14.8125H28.8225V8.8125ZM20.0725 8.8125C21.0119 8.8125 21.76 9.56065 21.76 10.5H15.76C15.76 12.8744 17.6982 14.8125 20.0725 14.8125V8.8125ZM21.76 10.5C21.76 11.4394 21.0119 12.1875 20.0725 12.1875V6.1875C17.6982 6.1875 15.76 8.12565 15.76 10.5H21.76ZM20.0725 12.1875H28.8225V6.1875H20.0725V12.1875ZM28.8225 12.1875C27.8832 12.1875 27.135 11.4394 27.135 10.5H33.135C33.135 8.12565 31.1969 6.1875 28.8225 6.1875V12.1875ZM27.135 10.5C27.135 9.56065 27.8832 8.8125 28.8225 8.8125V14.8125C31.1969 14.8125 33.135 12.8744 33.135 10.5H27.135Z" fill="white" mask="url(#path-3-inside-2_2_89)"/>
<mask id="path-5-inside-3_2_89" fill="white">
<path d="M27.0725 32.8125H20.0725C19.355 32.8125 18.76 32.2175 18.76 31.5C18.76 30.7825 19.355 30.1875 20.0725 30.1875H27.0725C27.79 30.1875 28.385 30.7825 28.385 31.5C28.385 32.2175 27.79 32.8125 27.0725 32.8125Z"/>
</mask>
<path d="M27.0725 29.8125H20.0725V35.8125H27.0725V29.8125ZM20.0725 29.8125C21.0119 29.8125 21.76 30.5606 21.76 31.5H15.76C15.76 33.8744 17.6982 35.8125 20.0725 35.8125V29.8125ZM21.76 31.5C21.76 32.4394 21.0119 33.1875 20.0725 33.1875V27.1875C17.6982 27.1875 15.76 29.1256 15.76 31.5H21.76ZM20.0725 33.1875H27.0725V27.1875H20.0725V33.1875ZM27.0725 33.1875C26.1332 33.1875 25.385 32.4393 25.385 31.5H31.385C31.385 29.1257 29.4469 27.1875 27.0725 27.1875V33.1875ZM25.385 31.5C25.385 30.5607 26.1332 29.8125 27.0725 29.8125V35.8125C29.4469 35.8125 31.385 33.8743 31.385 31.5H25.385Z" fill="white" mask="url(#path-5-inside-3_2_89)"/>
<mask id="path-7-inside-4_2_89" fill="white">
<path d="M28.8225 25.8125C28.805 25.8125 28.805 25.8125 28.8225 25.8125L20.055 25.725C19.3375 25.725 18.7425 25.13 18.76 24.395C18.76 23.6775 19.355 23.1 20.0725 23.1C20.0725 23.1 20.0725 23.1 20.09 23.1L28.84 23.1875C29.5575 23.1875 30.1525 23.7825 30.135 24.5175C30.1175 25.235 29.54 25.8125 28.8225 25.8125Z"/>
</mask>
<path d="M28.8225 25.8125L28.7926 28.8123L28.8075 28.8125H28.8225V25.8125ZM20.055 25.725L20.085 22.7251L20.07 22.725H20.055V25.725ZM18.76 24.395L21.7592 24.4664L21.76 24.4307V24.395H18.76ZM20.09 23.1L20.12 20.1001L20.105 20.1H20.09V23.1ZM28.84 23.1875L28.81 26.1873L28.825 26.1875H28.84V23.1875ZM30.135 24.5175L33.1341 24.5906L33.1342 24.5889L30.135 24.5175ZM28.8225 22.8125C28.8225 22.8125 28.8224 22.8125 28.8224 22.8125C28.8224 22.8125 28.8223 22.8125 28.8223 22.8125C28.8223 22.8125 28.8222 22.8125 28.8222 22.8125C28.8222 22.8125 28.8221 22.8125 28.8221 22.8125C28.8221 22.8125 28.822 22.8125 28.822 22.8125C28.822 22.8125 28.8219 22.8125 28.8219 22.8125C28.8219 22.8125 28.8218 22.8125 28.8218 22.8125C28.8218 22.8125 28.8217 22.8125 28.8217 22.8125C28.8217 22.8125 28.8216 22.8125 28.8216 22.8125C28.8216 22.8125 28.8215 22.8125 28.8215 22.8125C28.8215 22.8125 28.8214 22.8125 28.8214 22.8125C28.8214 22.8125 28.8213 22.8125 28.8213 22.8125C28.8213 22.8125 28.8212 22.8125 28.8212 22.8125C28.8212 22.8125 28.8212 22.8125 28.8211 22.8125C28.8211 22.8125 28.8211 22.8125 28.821 22.8125C28.821 22.8125 28.821 22.8125 28.8209 22.8125C28.8209 22.8125 28.8209 22.8125 28.8208 22.8125C28.8208 22.8125 28.8208 22.8125 28.8207 22.8125C28.8207 22.8125 28.8207 22.8125 28.8206 22.8125C28.8206 22.8125 28.8206 22.8125 28.8205 22.8125C28.8205 22.8125 28.8205 22.8125 28.8205 22.8125C28.8204 22.8125 28.8204 22.8125 28.8204 22.8125C28.8203 22.8125 28.8203 22.8125 28.8203 22.8125C28.8202 22.8125 28.8202 22.8125 28.8202 22.8125C28.8201 22.8125 28.8201 22.8125 28.8201 22.8125C28.82 22.8125 28.82 22.8125 28.82 22.8125C28.82 22.8125 28.8199 22.8125 28.8199 22.8125C28.8199 22.8125 28.8198 22.8125 28.8198 22.8125C28.8198 22.8125 28.8197 22.8125 28.8197 22.8125C28.8197 22.8125 28.8197 22.8125 28.8196 22.8125C28.8196 22.8125 28.8196 22.8125 28.8195 22.8125C28.8195 22.8125 28.8195 22.8125 28.8194 22.8125C28.8194 22.8125 28.8194 22.8125 28.8194 22.8125C28.8193 22.8125 28.8193 22.8125 28.8193 22.8125C28.8192 22.8125 28.8192 22.8125 28.8192 22.8125C28.8191 22.8125 28.8191 22.8125 28.8191 22.8125C28.8191 22.8125 28.819 22.8125 28.819 22.8125C28.819 22.8125 28.8189 22.8125 28.8189 22.8125C28.8189 22.8125 28.8189 22.8125 28.8188 22.8125C28.8188 22.8125 28.8188 22.8125 28.8187 22.8125C28.8187 22.8125 28.8187 22.8125 28.8186 22.8125C28.8186 22.8125 28.8186 22.8125 28.8186 22.8125C28.8185 22.8125 28.8185 22.8125 28.8185 22.8125C28.8184 22.8125 28.8184 22.8125 28.8184 22.8125C28.8184 22.8125 28.8183 22.8125 28.8183 22.8125C28.8183 22.8125 28.8183 22.8125 28.8182 22.8125C28.8182 22.8125 28.8182 22.8125 28.8181 22.8125C28.8181 22.8125 28.8181 22.8125 28.8181 22.8125C28.818 22.8125 28.818 22.8125 28.818 22.8125C28.8179 22.8125 28.8179 22.8125 28.8179 22.8125C28.8179 22.8125 28.8178 22.8125 28.8178 22.8125C28.8178 22.8125 28.8178 22.8125 28.8177 22.8125C28.8177 22.8125 28.8177 22.8125 28.8176 22.8125C28.8176 22.8125 28.8176 22.8125 28.8176 22.8125C28.8175 22.8125 28.8175 22.8125 28.8175 22.8125C28.8175 22.8125 28.8174 22.8125 28.8174 22.8125C28.8174 22.8125 28.8173 22.8125 28.8173 22.8125C28.8173 22.8125 28.8173 22.8125 28.8172 22.8125C28.8172 22.8125 28.8172 22.8125 28.8172 22.8125C28.8171 22.8125 28.8171 22.8125 28.8171 22.8125C28.8171 22.8125 28.817 22.8125 28.817 22.8125C28.817 22.8125 28.817 22.8125 28.8169 22.8125C28.8169 22.8125 28.8169 22.8125 28.8169 22.8125C28.8168 22.8125 28.8168 22.8125 28.8168 22.8125C28.8167 22.8125 28.8167 22.8125 28.8167 22.8125C28.8167 22.8125 28.8166 22.8125 28.8166 22.8125C28.8166 22.8125 28.8166 22.8125 28.8165 22.8125C28.8165 22.8125 28.8165 22.8125 28.8165 22.8125C28.8164 22.8125 28.8164 22.8125 28.8164 22.8125C28.8164 22.8125 28.8163 22.8125 28.8163 22.8125C28.8163 22.8125 28.8163 22.8125 28.8162 22.8125C28.8162 22.8125 28.8162 22.8125 28.8162 22.8125C28.8161 22.8125 28.8161 22.8125 28.8161 22.8125C28.8161 22.8125 28.816 22.8125 28.816 22.8125C28.816 22.8125 28.816 22.8125 28.816 22.8125C28.8159 22.8125 28.8159 22.8125 28.8159 22.8125C28.8159 22.8125 28.8158 22.8125 28.8158 22.8125C28.8158 22.8125 28.8158 22.8125 28.8157 22.8125C28.8157 22.8125 28.8157 22.8125 28.8157 22.8125C28.8156 22.8125 28.8156 22.8125 28.8156 22.8125C28.8156 22.8125 28.8155 22.8125 28.8155 22.8125C28.8155 22.8125 28.8155 22.8125 28.8155 22.8125C28.8154 22.8125 28.8154 22.8125 28.8154 22.8125C28.8154 22.8125 28.8153 22.8125 28.8153 22.8125C28.8153 22.8125 28.8153 22.8125 28.8152 22.8125C28.8152 22.8125 28.8152 22.8125 28.8152 22.8125C28.8152 22.8125 28.8151 22.8125 28.8151 22.8125C28.8151 22.8125 28.8151 22.8125 28.815 22.8125C28.815 22.8125 28.815 22.8125 28.815 22.8125C28.815 22.8125 28.8149 22.8125 28.8149 22.8125C28.8149 22.8125 28.8149 22.8125 28.8148 22.8125C28.8148 22.8125 28.8148 22.8125 28.8148 22.8125C28.8148 22.8125 28.8147 22.8125 28.8147 22.8125C28.8147 22.8125 28.8147 22.8125 28.8146 22.8125C28.8146 22.8125 28.8146 22.8125 28.8146 22.8125C28.8146 22.8125 28.8145 22.8125 28.8145 22.8125C28.8145 22.8125 28.8145 22.8125 28.8145 22.8125C28.8144 22.8125 28.8144 22.8125 28.8144 22.8125C28.8144 22.8125 28.8143 22.8125 28.8143 22.8125C28.8143 22.8125 28.8143 22.8125 28.8143 22.8125C28.8142 22.8125 28.8142 22.8125 28.8142 22.8125C28.8142 22.8125 28.8142 22.8125 28.8141 22.8125C28.8141 22.8125 28.8141 22.8125 28.8141 22.8125C28.8141 22.8125 28.814 22.8125 28.814 22.8125C28.814 22.8125 28.814 22.8125 28.814 22.8125C28.8139 22.8125 28.8139 22.8125 28.8139 22.8125C28.8139 22.8125 28.8139 22.8125 28.8138 22.8125C28.8138 22.8125 28.8138 22.8125 28.8138 22.8125C28.8138 22.8125 28.8137 22.8125 28.8137 22.8125C28.8137 22.8125 28.8137 22.8125 28.8137 22.8125C28.8136 22.8125 28.8136 22.8125 28.8136 22.8125C28.8136 22.8125 28.8136 22.8125 28.8135 22.8125C28.8135 22.8125 28.8135 22.8125 28.8135 22.8125C28.8135 22.8125 28.8134 22.8125 28.8134 22.8125C28.8134 22.8125 28.8134 22.8125 28.8134 22.8125C28.8134 22.8125 28.8133 22.8125 28.8133 22.8125C28.8133 22.8125 28.8133 22.8125 28.8133 22.8125C28.8132 22.8125 28.8132 22.8125 28.8132 22.8125C28.8132 22.8125 28.8132 22.8125 28.8132 22.8125C28.8131 22.8125 28.8131 22.8125 28.8131 22.8125C28.8131 22.8125 28.8131 22.8125 28.813 22.8125C28.813 22.8125 28.813 22.8125 28.813 22.8125C28.813 22.8125 28.813 22.8125 28.8129 22.8125C28.8129 22.8125 28.8129 22.8125 28.8129 22.8125C28.8129 22.8125 28.8128 22.8125 28.8128 22.8125C28.8128 22.8125 28.8128 22.8125 28.8128 22.8125C28.8128 22.8125 28.8127 22.8125 28.8127 22.8125C28.8127 22.8125 28.8127 22.8125 28.8127 22.8125C28.8127 22.8125 28.8126 22.8125 28.8126 22.8125C28.8126 22.8125 28.8126 22.8125 28.8126 22.8125C28.8126 22.8125 28.8125 22.8125 28.8125 22.8125C28.8125 22.8125 28.8125 22.8125 28.8125 22.8125C28.8125 22.8125 28.8124 22.8125 28.8124 22.8125C28.8124 22.8125 28.8124 22.8125 28.8124 22.8125C28.8124 22.8125 28.8123 22.8125 28.8123 22.8125C28.8123 22.8125 28.8123 22.8125 28.8123 22.8125C28.8123 22.8125 28.8122 22.8125 28.8122 22.8125C28.8122 22.8125 28.8122 22.8125 28.8122 22.8125C28.8122 22.8125 28.8121 22.8125 28.8121 22.8125C28.8121 22.8125 28.8121 22.8125 28.8121 22.8125C28.8121 22.8125 28.8121 22.8125 28.812 22.8125C28.812 22.8125 28.812 22.8125 28.812 22.8125C28.812 22.8125 28.812 22.8125 28.8119 22.8125C28.8119 22.8125 28.8119 22.8125 28.8119 22.8125C28.8119 22.8125 28.8119 22.8125 28.8119 22.8125C28.8118 22.8125 28.8118 22.8125 28.8118 22.8125C28.8118 22.8125 28.8118 22.8125 28.8118 22.8125C28.8118 22.8125 28.8117 22.8125 28.8117 22.8125C28.8117 22.8125 28.8117 22.8125 28.8117 22.8125C28.8117 22.8125 28.8117 22.8125 28.8116 22.8125C28.8116 22.8125 28.8116 22.8125 28.8116 22.8125C28.8116 22.8125 28.8116 22.8125 28.8116 22.8125C28.8115 22.8125 28.8115 22.8125 28.8115 22.8125C28.8115 22.8125 28.8115 22.8125 28.8115 22.8125C28.8115 22.8125 28.8114 22.8125 28.8114 22.8125C28.8114 22.8125 28.8114 22.8125 28.8114 22.8125C28.8114 22.8125 28.8114 22.8125 28.8114 22.8125C28.8113 22.8125 28.8113 22.8125 28.8113 22.8125C28.8113 22.8125 28.8113 22.8125 28.8113 22.8125C28.8113 22.8125 28.8113 22.8125 28.8112 22.8125C28.8112 22.8125 28.8112 22.8125 28.8112 22.8125C28.8112 22.8125 28.8112 22.8125 28.8112 22.8125C28.8111 22.8125 28.8111 22.8125 28.8111 22.8125C28.8111 22.8125 28.8111 22.8125 28.8111 22.8125C28.8111 22.8125 28.8111 22.8125 28.8111 22.8125C28.811 22.8125 28.811 22.8125 28.811 22.8125C28.811 22.8125 28.811 22.8125 28.811 22.8125C28.811 22.8125 28.811 22.8125 28.8109 22.8125C28.8109 22.8125 28.8109 22.8125 28.8109 22.8125C28.8109 22.8125 28.8109 22.8125 28.8109 22.8125C28.8109 22.8125 28.8109 22.8125 28.8108 22.8125C28.8108 22.8125 28.8108 22.8125 28.8108 22.8125C28.8108 22.8125 28.8108 22.8125 28.8108 22.8125C28.8108 22.8125 28.8107 22.8125 28.8107 22.8125C28.8107 22.8125 28.8107 22.8125 28.8107 22.8125C28.8107 22.8125 28.8107 22.8125 28.8107 22.8125C28.8107 22.8125 28.8107 22.8125 28.8106 22.8125C28.8106 22.8125 28.8106 22.8125 28.8106 22.8125C28.8106 22.8125 28.8106 22.8125 28.8106 22.8125C28.8106 22.8125 28.8106 22.8125 28.8105 22.8125C28.8105 22.8125 28.8105 22.8125 28.8105 22.8125C28.8105 22.8125 28.8105 22.8125 28.8105 22.8125C28.8105 22.8125 28.8105 22.8125 28.8105 22.8125C28.8104 22.8125 28.8104 22.8125 28.8104 22.8125C28.8104 22.8125 28.8104 22.8125 28.8104 22.8125C28.8104 22.8125 28.8104 22.8125 28.8104 22.8125C28.8104 22.8125 28.8104 22.8125 28.8103 22.8125C28.8103 22.8125 28.8103 22.8125 28.8103 22.8125C28.8103 22.8125 28.8103 22.8125 28.8103 22.8125C28.8103 22.8125 28.8103 22.8125 28.8103 22.8125C28.8103 22.8125 28.8102 22.8125 28.8102 22.8125C28.8102 22.8125 28.8102 22.8125 28.8102 22.8125C28.8102 22.8125 28.8102 22.8125 28.8102 22.8125C28.8102 22.8125 28.8102 22.8125 28.8102 22.8125C28.8102 22.8125 28.8101 22.8125 28.8101 22.8125C28.8101 22.8125 28.8101 22.8125 28.8101 22.8125C28.8101 22.8125 28.8101 22.8125 28.8101 22.8125C28.8101 22.8125 28.8101 22.8125 28.8101 22.8125C28.8101 22.8125 28.8101 22.8125 28.81 22.8125C28.81 22.8125 28.81 22.8125 28.81 22.8125C28.81 22.8125 28.81 22.8125 28.81 22.8125C28.81 22.8125 28.81 22.8125 28.81 22.8125C28.81 22.8125 28.81 22.8125 28.81 22.8125C28.8099 22.8125 28.8099 22.8125 28.8099 22.8125C28.8099 22.8125 28.8099 22.8125 28.8099 22.8125C28.8099 22.8125 28.8099 22.8125 28.8099 22.8125C28.8099 22.8125 28.8099 22.8125 28.8099 22.8125C28.8099 22.8125 28.8099 22.8125 28.8099 22.8125C28.8098 22.8125 28.8098 22.8125 28.8098 22.8125C28.8098 22.8125 28.8098 22.8125 28.8098 22.8125C28.8098 22.8125 28.8098 22.8125 28.8098 22.8125C28.8098 22.8125 28.8098 22.8125 28.8098 22.8125C28.8098 22.8125 28.8098 22.8125 28.8098 22.8125C28.8098 22.8125 28.8098 22.8125 28.8097 22.8125C28.8097 22.8125 28.8097 22.8125 28.8097 22.8125C28.8097 22.8125 28.8097 22.8125 28.8097 22.8125C28.8097 22.8125 28.8097 22.8125 28.8097 22.8125C28.8097 22.8125 28.8097 22.8125 28.8097 22.8125C28.8097 22.8125 28.8097 22.8125 28.8097 22.8125C28.8097 22.8125 28.8097 22.8125 28.8097 22.8125C28.8096 22.8125 28.8096 22.8125 28.8096 22.8125C28.8096 22.8125 28.8096 22.8125 28.8096 22.8125C28.8096 22.8125 28.8096 22.8125 28.8096 22.8125C28.8096 22.8125 28.8096 22.8125 28.8096 22.8125C28.8096 22.8125 28.8096 22.8125 28.8096 22.8125C28.8096 22.8125 28.8096 22.8125 28.8096 22.8125C28.8096 22.8125 28.8096 22.8125 28.8096 22.8125C28.8096 22.8125 28.8096 22.8125 28.8095 22.8125C28.8095 22.8125 28.8095 22.8125 28.8095 22.8125C28.8095 22.8125 28.8095 22.8125 28.8095 22.8125C28.8095 22.8125 28.8095 22.8125 28.8095 22.8125C28.8095 22.8125 28.8095 22.8125 28.8095 22.8125C28.8095 22.8125 28.8095 22.8125 28.8095 22.8125C28.8095 22.8125 28.8095 22.8125 28.8095 22.8125C28.8095 22.8125 28.8095 22.8125 28.8095 22.8125C28.8095 22.8125 28.8095 22.8125 28.8095 22.8125C28.8095 22.8125 28.8095 22.8125 28.8095 22.8125C28.8095 22.8125 28.8095 22.8125 28.8095 22.8125C28.8095 22.8125 28.8095 22.8125 28.8095 22.8125C28.8094 22.8125 28.8094 22.8125 28.8094 22.8125C28.8094 22.8125 28.8094 22.8125 28.8094 22.8125C28.8094 22.8125 28.8094 22.8125 28.8094 22.8125C28.8094 22.8125 28.8094 22.8125 28.8094 22.8125C28.8094 22.8125 28.8094 22.8125 28.8094 22.8125C28.8094 22.8125 28.8094 22.8125 28.8094 22.8125C28.8094 22.8125 28.8094 22.8125 28.8094 22.8125C28.8094 22.8125 28.8094 22.8125 28.8094 22.8125C28.8094 22.8125 28.8094 22.8125 28.8094 22.8125C28.8094 22.8125 28.8094 22.8125 28.8094 22.8125C28.8094 22.8125 28.8094 22.8125 28.8094 22.8125C28.8094 22.8125 28.8094 22.8125 28.8094 22.8125C28.8094 22.8125 28.8094 22.8125 28.8094 22.8125H28.8094C28.8094 22.8125 28.8094 22.8125 28.8094 22.8125C28.8094 22.8125 28.8094 22.8125 28.8094 22.8125C28.8094 22.8125 28.8094 22.8125 28.8094 25.8125C28.8094 28.8125 28.8094 28.8125 28.8094 28.8125C28.8094 28.8125 28.8094 28.8125 28.8094 28.8125C28.8094 28.8125 28.8094 28.8125 28.8094 28.8125H28.8094C28.8094 28.8125 28.8094 28.8125 28.8094 28.8125C28.8094 28.8125 28.8094 28.8125 28.8094 28.8125C28.8094 28.8125 28.8094 28.8125 28.8094 28.8125C28.8094 28.8125 28.8094 28.8125 28.8094 28.8125C28.8094 28.8125 28.8094 28.8125 28.8094 28.8125C28.8094 28.8125 28.8094 28.8125 28.8094 28.8125C28.8094 28.8125 28.8094 28.8125 28.8094 28.8125C28.8094 28.8125 28.8094 28.8125 28.8094 28.8125C28.8094 28.8125 28.8094 28.8125 28.8094 28.8125C28.8094 28.8125 28.8094 28.8125 28.8094 28.8125C28.8094 28.8125 28.8094 28.8125 28.8094 28.8125C28.8094 28.8125 28.8094 28.8125 28.8094 28.8125C28.8094 28.8125 28.8094 28.8125 28.8095 28.8125C28.8095 28.8125 28.8095 28.8125 28.8095 28.8125C28.8095 28.8125 28.8095 28.8125 28.8095 28.8125C28.8095 28.8125 28.8095 28.8125 28.8095 28.8125C28.8095 28.8125 28.8095 28.8125 28.8095 28.8125C28.8095 28.8125 28.8095 28.8125 28.8095 28.8125C28.8095 28.8125 28.8095 28.8125 28.8095 28.8125C28.8095 28.8125 28.8095 28.8125 28.8095 28.8125C28.8095 28.8125 28.8095 28.8125 28.8095 28.8125C28.8095 28.8125 28.8095 28.8125 28.8095 28.8125C28.8095 28.8125 28.8095 28.8125 28.8095 28.8125C28.8095 28.8125 28.8095 28.8125 28.8095 28.8125C28.8096 28.8125 28.8096 28.8125 28.8096 28.8125C28.8096 28.8125 28.8096 28.8125 28.8096 28.8125C28.8096 28.8125 28.8096 28.8125 28.8096 28.8125C28.8096 28.8125 28.8096 28.8125 28.8096 28.8125C28.8096 28.8125 28.8096 28.8125 28.8096 28.8125C28.8096 28.8125 28.8096 28.8125 28.8096 28.8125C28.8096 28.8125 28.8096 28.8125 28.8096 28.8125C28.8096 28.8125 28.8096 28.8125 28.8097 28.8125C28.8097 28.8125 28.8097 28.8125 28.8097 28.8125C28.8097 28.8125 28.8097 28.8125 28.8097 28.8125C28.8097 28.8125 28.8097 28.8125 28.8097 28.8125C28.8097 28.8125 28.8097 28.8125 28.8097 28.8125C28.8097 28.8125 28.8097 28.8125 28.8097 28.8125C28.8097 28.8125 28.8097 28.8125 28.8097 28.8125C28.8098 28.8125 28.8098 28.8125 28.8098 28.8125C28.8098 28.8125 28.8098 28.8125 28.8098 28.8125C28.8098 28.8125 28.8098 28.8125 28.8098 28.8125C28.8098 28.8125 28.8098 28.8125 28.8098 28.8125C28.8098 28.8125 28.8098 28.8125 28.8098 28.8125C28.8098 28.8125 28.8098 28.8125 28.8099 28.8125C28.8099 28.8125 28.8099 28.8125 28.8099 28.8125C28.8099 28.8125 28.8099 28.8125 28.8099 28.8125C28.8099 28.8125 28.8099 28.8125 28.8099 28.8125C28.8099 28.8125 28.8099 28.8125 28.8099 28.8125C28.8099 28.8125 28.8099 28.8125 28.81 28.8125C28.81 28.8125 28.81 28.8125 28.81 28.8125C28.81 28.8125 28.81 28.8125 28.81 28.8125C28.81 28.8125 28.81 28.8125 28.81 28.8125C28.81 28.8125 28.81 28.8125 28.81 28.8125C28.8101 28.8125 28.8101 28.8125 28.8101 28.8125C28.8101 28.8125 28.8101 28.8125 28.8101 28.8125C28.8101 28.8125 28.8101 28.8125 28.8101 28.8125C28.8101 28.8125 28.8101 28.8125 28.8101 28.8125C28.8101 28.8125 28.8102 28.8125 28.8102 28.8125C28.8102 28.8125 28.8102 28.8125 28.8102 28.8125C28.8102 28.8125 28.8102 28.8125 28.8102 28.8125C28.8102 28.8125 28.8102 28.8125 28.8102 28.8125C28.8102 28.8125 28.8103 28.8125 28.8103 28.8125C28.8103 28.8125 28.8103 28.8125 28.8103 28.8125C28.8103 28.8125 28.8103 28.8125 28.8103 28.8125C28.8103 28.8125 28.8103 28.8125 28.8103 28.8125C28.8104 28.8125 28.8104 28.8125 28.8104 28.8125C28.8104 28.8125 28.8104 28.8125 28.8104 28.8125C28.8104 28.8125 28.8104 28.8125 28.8104 28.8125C28.8104 28.8125 28.8104 28.8125 28.8105 28.8125C28.8105 28.8125 28.8105 28.8125 28.8105 28.8125C28.8105 28.8125 28.8105 28.8125 28.8105 28.8125C28.8105 28.8125 28.8105 28.8125 28.8105 28.8125C28.8106 28.8125 28.8106 28.8125 28.8106 28.8125C28.8106 28.8125 28.8106 28.8125 28.8106 28.8125C28.8106 28.8125 28.8106 28.8125 28.8106 28.8125C28.8107 28.8125 28.8107 28.8125 28.8107 28.8125C28.8107 28.8125 28.8107 28.8125 28.8107 28.8125C28.8107 28.8125 28.8107 28.8125 28.8107 28.8125C28.8107 28.8125 28.8108 28.8125 28.8108 28.8125C28.8108 28.8125 28.8108 28.8125 28.8108 28.8125C28.8108 28.8125 28.8108 28.8125 28.8108 28.8125C28.8109 28.8125 28.8109 28.8125 28.8109 28.8125C28.8109 28.8125 28.8109 28.8125 28.8109 28.8125C28.8109 28.8125 28.8109 28.8125 28.8109 28.8125C28.811 28.8125 28.811 28.8125 28.811 28.8125C28.811 28.8125 28.811 28.8125 28.811 28.8125C28.811 28.8125 28.811 28.8125 28.8111 28.8125C28.8111 28.8125 28.8111 28.8125 28.8111 28.8125C28.8111 28.8125 28.8111 28.8125 28.8111 28.8125C28.8111 28.8125 28.8111 28.8125 28.8112 28.8125C28.8112 28.8125 28.8112 28.8125 28.8112 28.8125C28.8112 28.8125 28.8112 28.8125 28.8112 28.8125C28.8113 28.8125 28.8113 28.8125 28.8113 28.8125C28.8113 28.8125 28.8113 28.8125 28.8113 28.8125C28.8113 28.8125 28.8113 28.8125 28.8114 28.8125C28.8114 28.8125 28.8114 28.8125 28.8114 28.8125C28.8114 28.8125 28.8114 28.8125 28.8114 28.8125C28.8114 28.8125 28.8115 28.8125 28.8115 28.8125C28.8115 28.8125 28.8115 28.8125 28.8115 28.8125C28.8115 28.8125 28.8115 28.8125 28.8116 28.8125C28.8116 28.8125 28.8116 28.8125 28.8116 28.8125C28.8116 28.8125 28.8116 28.8125 28.8116 28.8125C28.8117 28.8125 28.8117 28.8125 28.8117 28.8125C28.8117 28.8125 28.8117 28.8125 28.8117 28.8125C28.8117 28.8125 28.8118 28.8125 28.8118 28.8125C28.8118 28.8125 28.8118 28.8125 28.8118 28.8125C28.8118 28.8125 28.8118 28.8125 28.8119 28.8125C28.8119 28.8125 28.8119 28.8125 28.8119 28.8125C28.8119 28.8125 28.8119 28.8125 28.8119 28.8125C28.812 28.8125 28.812 28.8125 28.812 28.8125C28.812 28.8125 28.812 28.8125 28.812 28.8125C28.8121 28.8125 28.8121 28.8125 28.8121 28.8125C28.8121 28.8125 28.8121 28.8125 28.8121 28.8125C28.8121 28.8125 28.8122 28.8125 28.8122 28.8125C28.8122 28.8125 28.8122 28.8125 28.8122 28.8125C28.8122 28.8125 28.8123 28.8125 28.8123 28.8125C28.8123 28.8125 28.8123 28.8125 28.8123 28.8125C28.8123 28.8125 28.8124 28.8125 28.8124 28.8125C28.8124 28.8125 28.8124 28.8125 28.8124 28.8125C28.8124 28.8125 28.8125 28.8125 28.8125 28.8125C28.8125 28.8125 28.8125 28.8125 28.8125 28.8125C28.8125 28.8125 28.8126 28.8125 28.8126 28.8125C28.8126 28.8125 28.8126 28.8125 28.8126 28.8125C28.8126 28.8125 28.8127 28.8125 28.8127 28.8125C28.8127 28.8125 28.8127 28.8125 28.8127 28.8125C28.8127 28.8125 28.8128 28.8125 28.8128 28.8125C28.8128 28.8125 28.8128 28.8125 28.8128 28.8125C28.8128 28.8125 28.8129 28.8125 28.8129 28.8125C28.8129 28.8125 28.8129 28.8125 28.8129 28.8125C28.813 28.8125 28.813 28.8125 28.813 28.8125C28.813 28.8125 28.813 28.8125 28.813 28.8125C28.8131 28.8125 28.8131 28.8125 28.8131 28.8125C28.8131 28.8125 28.8131 28.8125 28.8132 28.8125C28.8132 28.8125 28.8132 28.8125 28.8132 28.8125C28.8132 28.8125 28.8132 28.8125 28.8133 28.8125C28.8133 28.8125 28.8133 28.8125 28.8133 28.8125C28.8133 28.8125 28.8134 28.8125 28.8134 28.8125C28.8134 28.8125 28.8134 28.8125 28.8134 28.8125C28.8134 28.8125 28.8135 28.8125 28.8135 28.8125C28.8135 28.8125 28.8135 28.8125 28.8135 28.8125C28.8136 28.8125 28.8136 28.8125 28.8136 28.8125C28.8136 28.8125 28.8136 28.8125 28.8137 28.8125C28.8137 28.8125 28.8137 28.8125 28.8137 28.8125C28.8137 28.8125 28.8138 28.8125 28.8138 28.8125C28.8138 28.8125 28.8138 28.8125 28.8138 28.8125C28.8139 28.8125 28.8139 28.8125 28.8139 28.8125C28.8139 28.8125 28.8139 28.8125 28.814 28.8125C28.814 28.8125 28.814 28.8125 28.814 28.8125C28.814 28.8125 28.8141 28.8125 28.8141 28.8125C28.8141 28.8125 28.8141 28.8125 28.8141 28.8125C28.8142 28.8125 28.8142 28.8125 28.8142 28.8125C28.8142 28.8125 28.8142 28.8125 28.8143 28.8125C28.8143 28.8125 28.8143 28.8125 28.8143 28.8125C28.8143 28.8125 28.8144 28.8125 28.8144 28.8125C28.8144 28.8125 28.8144 28.8125 28.8145 28.8125C28.8145 28.8125 28.8145 28.8125 28.8145 28.8125C28.8145 28.8125 28.8146 28.8125 28.8146 28.8125C28.8146 28.8125 28.8146 28.8125 28.8146 28.8125C28.8147 28.8125 28.8147 28.8125 28.8147 28.8125C28.8147 28.8125 28.8148 28.8125 28.8148 28.8125C28.8148 28.8125 28.8148 28.8125 28.8148 28.8125C28.8149 28.8125 28.8149 28.8125 28.8149 28.8125C28.8149 28.8125 28.815 28.8125 28.815 28.8125C28.815 28.8125 28.815 28.8125 28.815 28.8125C28.8151 28.8125 28.8151 28.8125 28.8151 28.8125C28.8151 28.8125 28.8152 28.8125 28.8152 28.8125C28.8152 28.8125 28.8152 28.8125 28.8152 28.8125C28.8153 28.8125 28.8153 28.8125 28.8153 28.8125C28.8153 28.8125 28.8154 28.8125 28.8154 28.8125C28.8154 28.8125 28.8154 28.8125 28.8155 28.8125C28.8155 28.8125 28.8155 28.8125 28.8155 28.8125C28.8155 28.8125 28.8156 28.8125 28.8156 28.8125C28.8156 28.8125 28.8156 28.8125 28.8157 28.8125C28.8157 28.8125 28.8157 28.8125 28.8157 28.8125C28.8158 28.8125 28.8158 28.8125 28.8158 28.8125C28.8158 28.8125 28.8159 28.8125 28.8159 28.8125C28.8159 28.8125 28.8159 28.8125 28.816 28.8125C28.816 28.8125 28.816 28.8125 28.816 28.8125C28.816 28.8125 28.8161 28.8125 28.8161 28.8125C28.8161 28.8125 28.8161 28.8125 28.8162 28.8125C28.8162 28.8125 28.8162 28.8125 28.8162 28.8125C28.8163 28.8125 28.8163 28.8125 28.8163 28.8125C28.8163 28.8125 28.8164 28.8125 28.8164 28.8125C28.8164 28.8125 28.8164 28.8125 28.8165 28.8125C28.8165 28.8125 28.8165 28.8125 28.8165 28.8125C28.8166 28.8125 28.8166 28.8125 28.8166 28.8125C28.8166 28.8125 28.8167 28.8125 28.8167 28.8125C28.8167 28.8125 28.8167 28.8125 28.8168 28.8125C28.8168 28.8125 28.8168 28.8125 28.8169 28.8125C28.8169 28.8125 28.8169 28.8125 28.8169 28.8125C28.817 28.8125 28.817 28.8125 28.817 28.8125C28.817 28.8125 28.8171 28.8125 28.8171 28.8125C28.8171 28.8125 28.8171 28.8125 28.8172 28.8125C28.8172 28.8125 28.8172 28.8125 28.8172 28.8125C28.8173 28.8125 28.8173 28.8125 28.8173 28.8125C28.8173 28.8125 28.8174 28.8125 28.8174 28.8125C28.8174 28.8125 28.8175 28.8125 28.8175 28.8125C28.8175 28.8125 28.8175 28.8125 28.8176 28.8125C28.8176 28.8125 28.8176 28.8125 28.8176 28.8125C28.8177 28.8125 28.8177 28.8125 28.8177 28.8125C28.8178 28.8125 28.8178 28.8125 28.8178 28.8125C28.8178 28.8125 28.8179 28.8125 28.8179 28.8125C28.8179 28.8125 28.8179 28.8125 28.818 28.8125C28.818 28.8125 28.818 28.8125 28.8181 28.8125C28.8181 28.8125 28.8181 28.8125 28.8181 28.8125C28.8182 28.8125 28.8182 28.8125 28.8182 28.8125C28.8183 28.8125 28.8183 28.8125 28.8183 28.8125C28.8183 28.8125 28.8184 28.8125 28.8184 28.8125C28.8184 28.8125 28.8184 28.8125 28.8185 28.8125C28.8185 28.8125 28.8185 28.8125 28.8186 28.8125C28.8186 28.8125 28.8186 28.8125 28.8186 28.8125C28.8187 28.8125 28.8187 28.8125 28.8187 28.8125C28.8188 28.8125 28.8188 28.8125 28.8188 28.8125C28.8189 28.8125 28.8189 28.8125 28.8189 28.8125C28.8189 28.8125 28.819 28.8125 28.819 28.8125C28.819 28.8125 28.8191 28.8125 28.8191 28.8125C28.8191 28.8125 28.8191 28.8125 28.8192 28.8125C28.8192 28.8125 28.8192 28.8125 28.8193 28.8125C28.8193 28.8125 28.8193 28.8125 28.8194 28.8125C28.8194 28.8125 28.8194 28.8125 28.8194 28.8125C28.8195 28.8125 28.8195 28.8125 28.8195 28.8125C28.8196 28.8125 28.8196 28.8125 28.8196 28.8125C28.8197 28.8125 28.8197 28.8125 28.8197 28.8125C28.8197 28.8125 28.8198 28.8125 28.8198 28.8125C28.8198 28.8125 28.8199 28.8125 28.8199 28.8125C28.8199 28.8125 28.82 28.8125 28.82 28.8125C28.82 28.8125 28.82 28.8125 28.8201 28.8125C28.8201 28.8125 28.8201 28.8125 28.8202 28.8125C28.8202 28.8125 28.8202 28.8125 28.8203 28.8125C28.8203 28.8125 28.8203 28.8125 28.8204 28.8125C28.8204 28.8125 28.8204 28.8125 28.8205 28.8125C28.8205 28.8125 28.8205 28.8125 28.8205 28.8125C28.8206 28.8125 28.8206 28.8125 28.8206 28.8125C28.8207 28.8125 28.8207 28.8125 28.8207 28.8125C28.8208 28.8125 28.8208 28.8125 28.8208 28.8125C28.8209 28.8125 28.8209 28.8125 28.8209 28.8125C28.821 28.8125 28.821 28.8125 28.821 28.8125C28.8211 28.8125 28.8211 28.8125 28.8211 28.8125C28.8212 28.8125 28.8212 28.8125 28.8212 28.8125C28.8212 28.8125 28.8213 28.8125 28.8213 28.8125C28.8213 28.8125 28.8214 28.8125 28.8214 28.8125C28.8214 28.8125 28.8215 28.8125 28.8215 28.8125C28.8215 28.8125 28.8216 28.8125 28.8216 28.8125C28.8216 28.8125 28.8217 28.8125 28.8217 28.8125C28.8217 28.8125 28.8218 28.8125 28.8218 28.8125C28.8218 28.8125 28.8219 28.8125 28.8219 28.8125C28.8219 28.8125 28.822 28.8125 28.822 28.8125C28.822 28.8125 28.8221 28.8125 28.8221 28.8125C28.8221 28.8125 28.8222 28.8125 28.8222 28.8125C28.8222 28.8125 28.8223 28.8125 28.8223 28.8125C28.8223 28.8125 28.8224 28.8125 28.8224 28.8125C28.8224 28.8125 28.8225 28.8125 28.8225 28.8125V22.8125C28.8225 22.8125 28.8224 22.8125 28.8224 22.8125C28.8224 22.8125 28.8223 22.8125 28.8223 22.8125C28.8223 22.8125 28.8222 22.8125 28.8222 22.8125C28.8222 22.8125 28.8221 22.8125 28.8221 22.8125C28.8221 22.8125 28.822 22.8125 28.822 22.8125C28.822 22.8125 28.8219 22.8125 28.8219 22.8125C28.8219 22.8125 28.8218 22.8125 28.8218 22.8125C28.8218 22.8125 28.8217 22.8125 28.8217 22.8125C28.8217 22.8125 28.8216 22.8125 28.8216 22.8125C28.8216 22.8125 28.8215 22.8125 28.8215 22.8125C28.8215 22.8125 28.8214 22.8125 28.8214 22.8125C28.8214 22.8125 28.8213 22.8125 28.8213 22.8125C28.8213 22.8125 28.8212 22.8125 28.8212 22.8125C28.8212 22.8125 28.8212 22.8125 28.8211 22.8125C28.8211 22.8125 28.8211 22.8125 28.821 22.8125C28.821 22.8125 28.821 22.8125 28.8209 22.8125C28.8209 22.8125 28.8209 22.8125 28.8208 22.8125C28.8208 22.8125 28.8208 22.8125 28.8207 22.8125C28.8207 22.8125 28.8207 22.8125 28.8206 22.8125C28.8206 22.8125 28.8206 22.8125 28.8205 22.8125C28.8205 22.8125 28.8205 22.8125 28.8205 22.8125C28.8204 22.8125 28.8204 22.8125 28.8204 22.8125C28.8203 22.8125 28.8203 22.8125 28.8203 22.8125C28.8202 22.8125 28.8202 22.8125 28.8202 22.8125C28.8201 22.8125 28.8201 22.8125 28.8201 22.8125C28.82 22.8125 28.82 22.8125 28.82 22.8125C28.82 22.8125 28.8199 22.8125 28.8199 22.8125C28.8199 22.8125 28.8198 22.8125 28.8198 22.8125C28.8198 22.8125 28.8197 22.8125 28.8197 22.8125C28.8197 22.8125 28.8197 22.8125 28.8196 22.8125C28.8196 22.8125 28.8196 22.8125 28.8195 22.8125C28.8195 22.8125 28.8195 22.8125 28.8194 22.8125C28.8194 22.8125 28.8194 22.8125 28.8194 22.8125C28.8193 22.8125 28.8193 22.8125 28.8193 22.8125C28.8192 22.8125 28.8192 22.8125 28.8192 22.8125C28.8191 22.8125 28.8191 22.8125 28.8191 22.8125C28.8191 22.8125 28.819 22.8125 28.819 22.8125C28.819 22.8125 28.8189 22.8125 28.8189 22.8125C28.8189 22.8125 28.8189 22.8125 28.8188 22.8125C28.8188 22.8125 28.8188 22.8125 28.8187 22.8125C28.8187 22.8125 28.8187 22.8125 28.8186 22.8125C28.8186 22.8125 28.8186 22.8125 28.8186 22.8125C28.8185 22.8125 28.8185 22.8125 28.8185 22.8125C28.8184 22.8125 28.8184 22.8125 28.8184 22.8125C28.8184 22.8125 28.8183 22.8125 28.8183 22.8125C28.8183 22.8125 28.8183 22.8125 28.8182 22.8125C28.8182 22.8125 28.8182 22.8125 28.8181 22.8125C28.8181 22.8125 28.8181 22.8125 28.8181 22.8125C28.818 22.8125 28.818 22.8125 28.818 22.8125C28.8179 22.8125 28.8179 22.8125 28.8179 22.8125C28.8179 22.8125 28.8178 22.8125 28.8178 22.8125C28.8178 22.8125 28.8178 22.8125 28.8177 22.8125C28.8177 22.8125 28.8177 22.8125 28.8176 22.8125C28.8176 22.8125 28.8176 22.8125 28.8176 22.8125C28.8175 22.8125 28.8175 22.8125 28.8175 22.8125C28.8175 22.8125 28.8174 22.8125 28.8174 22.8125C28.8174 22.8125 28.8173 22.8125 28.8173 22.8125C28.8173 22.8125 28.8173 22.8125 28.8172 22.8125C28.8172 22.8125 28.8172 22.8125 28.8172 22.8125C28.8171 22.8125 28.8171 22.8125 28.8171 22.8125C28.8171 22.8125 28.817 22.8125 28.817 22.8125C28.817 22.8125 28.817 22.8125 28.8169 22.8125C28.8169 22.8125 28.8169 22.8125 28.8169 22.8125C28.8168 22.8125 28.8168 22.8125 28.8168 22.8125C28.8167 22.8125 28.8167 22.8125 28.8167 22.8125C28.8167 22.8125 28.8166 22.8125 28.8166 22.8125C28.8166 22.8125 28.8166 22.8125 28.8165 22.8125C28.8165 22.8125 28.8165 22.8125 28.8165 22.8125C28.8164 22.8125 28.8164 22.8125 28.8164 22.8125C28.8164 22.8125 28.8163 22.8125 28.8163 22.8125C28.8163 22.8125 28.8163 22.8125 28.8162 22.8125C28.8162 22.8125 28.8162 22.8125 28.8162 22.8125C28.8161 22.8125 28.8161 22.8125 28.8161 22.8125C28.8161 22.8125 28.816 22.8125 28.816 22.8125C28.816 22.8125 28.816 22.8125 28.816 22.8125C28.8159 22.8125 28.8159 22.8125 28.8159 22.8125C28.8159 22.8125 28.8158 22.8125 28.8158 22.8125C28.8158 22.8125 28.8158 22.8125 28.8157 22.8125C28.8157 22.8125 28.8157 22.8125 28.8157 22.8125C28.8156 22.8125 28.8156 22.8125 28.8156 22.8125C28.8156 22.8125 28.8155 22.8125 28.8155 22.8125C28.8155 22.8125 28.8155 22.8125 28.8155 22.8125C28.8154 22.8125 28.8154 22.8125 28.8154 22.8125C28.8154 22.8125 28.8153 22.8125 28.8153 22.8125C28.8153 22.8125 28.8153 22.8125 28.8152 22.8125C28.8152 22.8125 28.8152 22.8125 28.8152 22.8125C28.8152 22.8125 28.8151 22.8125 28.8151 22.8125C28.8151 22.8125 28.8151 22.8125 28.815 22.8125C28.815 22.8125 28.815 22.8125 28.815 22.8125C28.815 22.8125 28.8149 22.8125 28.8149 22.8125C28.8149 22.8125 28.8149 22.8125 28.8148 22.8125C28.8148 22.8125 28.8148 22.8125 28.8148 22.8125C28.8148 22.8125 28.8147 22.8125 28.8147 22.8125C28.8147 22.8125 28.8147 22.8125 28.8146 22.8125C28.8146 22.8125 28.8146 22.8125 28.8146 22.8125C28.8146 22.8125 28.8145 22.8125 28.8145 22.8125C28.8145 22.8125 28.8145 22.8125 28.8145 22.8125C28.8144 22.8125 28.8144 22.8125 28.8144 22.8125C28.8144 22.8125 28.8143 22.8125 28.8143 22.8125C28.8143 22.8125 28.8143 22.8125 28.8143 22.8125C28.8142 22.8125 28.8142 22.8125 28.8142 22.8125C28.8142 22.8125 28.8142 22.8125 28.8141 22.8125C28.8141 22.8125 28.8141 22.8125 28.8141 22.8125C28.8141 22.8125 28.814 22.8125 28.814 22.8125C28.814 22.8125 28.814 22.8125 28.814 22.8125C28.8139 22.8125 28.8139 22.8125 28.8139 22.8125C28.8139 22.8125 28.8139 22.8125 28.8138 22.8125C28.8138 22.8125 28.8138 22.8125 28.8138 22.8125C28.8138 22.8125 28.8137 22.8125 28.8137 22.8125C28.8137 22.8125 28.8137 22.8125 28.8137 22.8125C28.8136 22.8125 28.8136 22.8125 28.8136 22.8125C28.8136 22.8125 28.8136 22.8125 28.8135 22.8125C28.8135 22.8125 28.8135 22.8125 28.8135 22.8125C28.8135 22.8125 28.8134 22.8125 28.8134 22.8125C28.8134 22.8125 28.8134 22.8125 28.8134 22.8125C28.8134 22.8125 28.8133 22.8125 28.8133 22.8125C28.8133 22.8125 28.8133 22.8125 28.8133 22.8125C28.8132 22.8125 28.8132 22.8125 28.8132 22.8125C28.8132 22.8125 28.8132 22.8125 28.8132 22.8125C28.8131 22.8125 28.8131 22.8125 28.8131 22.8125C28.8131 22.8125 28.8131 22.8125 28.813 22.8125C28.813 22.8125 28.813 22.8125 28.813 22.8125C28.813 22.8125 28.813 22.8125 28.8129 22.8125C28.8129 22.8125 28.8129 22.8125 28.8129 22.8125C28.8129 22.8125 28.8128 22.8125 28.8128 22.8125C28.8128 22.8125 28.8128 22.8125 28.8128 22.8125C28.8128 22.8125 28.8127 22.8125 28.8127 22.8125C28.8127 22.8125 28.8127 22.8125 28.8127 22.8125C28.8127 22.8125 28.8126 22.8125 28.8126 22.8125C28.8126 22.8125 28.8126 22.8125 28.8126 22.8125C28.8126 22.8125 28.8125 22.8125 28.8125 22.8125C28.8125 22.8125 28.8125 22.8125 28.8125 22.8125C28.8125 22.8125 28.8124 22.8125 28.8124 22.8125C28.8124 22.8125 28.8124 22.8125 28.8124 22.8125C28.8124 22.8125 28.8123 22.8125 28.8123 22.8125C28.8123 22.8125 28.8123 22.8125 28.8123 22.8125C28.8123 22.8125 28.8122 22.8125 28.8122 22.8125C28.8122 22.8125 28.8122 22.8125 28.8122 22.8125C28.8122 22.8125 28.8121 22.8125 28.8121 22.8125C28.8121 22.8125 28.8121 22.8125 28.8121 22.8125C28.8121 22.8125 28.8121 22.8125 28.812 22.8125C28.812 22.8125 28.812 22.8125 28.812 22.8125C28.812 22.8125 28.812 22.8125 28.8119 22.8125C28.8119 22.8125 28.8119 22.8125 28.8119 22.8125C28.8119 22.8125 28.8119 22.8125 28.8119 22.8125C28.8118 22.8125 28.8118 22.8125 28.8118 22.8125C28.8118 22.8125 28.8118 22.8125 28.8118 22.8125C28.8118 22.8125 28.8117 22.8125 28.8117 22.8125C28.8117 22.8125 28.8117 22.8125 28.8117 22.8125C28.8117 22.8125 28.8117 22.8125 28.8116 22.8125C28.8116 22.8125 28.8116 22.8125 28.8116 22.8125C28.8116 22.8125 28.8116 22.8125 28.8116 22.8125C28.8115 22.8125 28.8115 22.8125 28.8115 22.8125C28.8115 22.8125 28.8115 22.8125 28.8115 22.8125C28.8115 22.8125 28.8114 22.8125 28.8114 22.8125C28.8114 22.8125 28.8114 22.8125 28.8114 22.8125C28.8114 22.8125 28.8114 22.8125 28.8114 22.8125C28.8113 22.8125 28.8113 22.8125 28.8113 22.8125C28.8113 22.8125 28.8113 22.8125 28.8113 22.8125C28.8113 22.8125 28.8113 22.8125 28.8112 22.8125C28.8112 22.8125 28.8112 22.8125 28.8112 22.8125C28.8112 22.8125 28.8112 22.8125 28.8112 22.8125C28.8111 22.8125 28.8111 22.8125 28.8111 22.8125C28.8111 22.8125 28.8111 22.8125 28.8111 22.8125C28.8111 22.8125 28.8111 22.8125 28.8111 22.8125C28.811 22.8125 28.811 22.8125 28.811 22.8125C28.811 22.8125 28.811 22.8125 28.811 22.8125C28.811 22.8125 28.811 22.8125 28.8109 22.8125C28.8109 22.8125 28.8109 22.8125 28.8109 22.8125C28.8109 22.8125 28.8109 22.8125 28.8109 22.8125C28.8109 22.8125 28.8109 22.8125 28.8108 22.8125C28.8108 22.8125 28.8108 22.8125 28.8108 22.8125C28.8108 22.8125 28.8108 22.8125 28.8108 22.8125C28.8108 22.8125 28.8107 22.8125 28.8107 22.8125C28.8107 22.8125 28.8107 22.8125 28.8107 22.8125C28.8107 22.8125 28.8107 22.8125 28.8107 22.8125C28.8107 22.8125 28.8107 22.8125 28.8106 22.8125C28.8106 22.8125 28.8106 22.8125 28.8106 22.8125C28.8106 22.8125 28.8106 22.8125 28.8106 22.8125C28.8106 22.8125 28.8106 22.8125 28.8105 22.8125C28.8105 22.8125 28.8105 22.8125 28.8105 22.8125C28.8105 22.8125 28.8105 22.8125 28.8105 22.8125C28.8105 22.8125 28.8105 22.8125 28.8105 22.8125C28.8104 22.8125 28.8104 22.8125 28.8104 22.8125C28.8104 22.8125 28.8104 22.8125 28.8104 22.8125C28.8104 22.8125 28.8104 22.8125 28.8104 22.8125C28.8104 22.8125 28.8104 22.8125 28.8103 22.8125C28.8103 22.8125 28.8103 22.8125 28.8103 22.8125C28.8103 22.8125 28.8103 22.8125 28.8103 22.8125C28.8103 22.8125 28.8103 22.8125 28.8103 22.8125C28.8103 22.8125 28.8102 22.8125 28.8102 22.8125C28.8102 22.8125 28.8102 22.8125 28.8102 22.8125C28.8102 22.8125 28.8102 22.8125 28.8102 22.8125C28.8102 22.8125 28.8102 22.8125 28.8102 22.8125C28.8102 22.8125 28.8101 22.8125 28.8101 22.8125C28.8101 22.8125 28.8101 22.8125 28.8101 22.8125C28.8101 22.8125 28.8101 22.8125 28.8101 22.8125C28.8101 22.8125 28.8101 22.8125 28.8101 22.8125C28.8101 22.8125 28.8101 22.8125 28.81 22.8125C28.81 22.8125 28.81 22.8125 28.81 22.8125C28.81 22.8125 28.81 22.8125 28.81 22.8125C28.81 22.8125 28.81 22.8125 28.81 22.8125C28.81 22.8125 28.81 22.8125 28.81 22.8125C28.8099 22.8125 28.8099 22.8125 28.8099 22.8125C28.8099 22.8125 28.8099 22.8125 28.8099 22.8125C28.8099 22.8125 28.8099 22.8125 28.8099 22.8125C28.8099 22.8125 28.8099 22.8125 28.8099 22.8125C28.8099 22.8125 28.8099 22.8125 28.8099 22.8125C28.8098 22.8125 28.8098 22.8125 28.8098 22.8125C28.8098 22.8125 28.8098 22.8125 28.8098 22.8125C28.8098 22.8125 28.8098 22.8125 28.8098 22.8125C28.8098 22.8125 28.8098 22.8125 28.8098 22.8125C28.8098 22.8125 28.8098 22.8125 28.8098 22.8125C28.8098 22.8125 28.8098 22.8125 28.8097 22.8125C28.8097 22.8125 28.8097 22.8125 28.8097 22.8125C28.8097 22.8125 28.8097 22.8125 28.8097 22.8125C28.8097 22.8125 28.8097 22.8125 28.8097 22.8125C28.8097 22.8125 28.8097 22.8125 28.8097 22.8125C28.8097 22.8125 28.8097 22.8125 28.8097 22.8125C28.8097 22.8125 28.8097 22.8125 28.8097 22.8125C28.8096 22.8125 28.8096 22.8125 28.8096 22.8125C28.8096 22.8125 28.8096 22.8125 28.8096 22.8125C28.8096 22.8125 28.8096 22.8125 28.8096 22.8125C28.8096 22.8125 28.8096 22.8125 28.8096 22.8125C28.8096 22.8125 28.8096 22.8125 28.8096 22.8125C28.8096 22.8125 28.8096 22.8125 28.8096 22.8125C28.8096 22.8125 28.8096 22.8125 28.8096 22.8125C28.8096 22.8125 28.8096 22.8125 28.8095 22.8125C28.8095 22.8125 28.8095 22.8125 28.8095 22.8125C28.8095 22.8125 28.8095 22.8125 28.8095 22.8125C28.8095 22.8125 28.8095 22.8125 28.8095 22.8125C28.8095 22.8125 28.8095 22.8125 28.8095 22.8125C28.8095 22.8125 28.8095 22.8125 28.8095 22.8125C28.8095 22.8125 28.8095 22.8125 28.8095 22.8125C28.8095 22.8125 28.8095 22.8125 28.8095 22.8125C28.8095 22.8125 28.8095 22.8125 28.8095 22.8125C28.8095 22.8125 28.8095 22.8125 28.8095 22.8125C28.8095 22.8125 28.8095 22.8125 28.8095 22.8125C28.8095 22.8125 28.8095 22.8125 28.8095 22.8125C28.8094 22.8125 28.8094 22.8125 28.8094 22.8125C28.8094 22.8125 28.8094 22.8125 28.8094 22.8125C28.8094 22.8125 28.8094 22.8125 28.8094 22.8125C28.8094 22.8125 28.8094 22.8125 28.8094 22.8125C28.8094 22.8125 28.8094 22.8125 28.8094 22.8125C28.8094 22.8125 28.8094 22.8125 28.8094 22.8125C28.8094 22.8125 28.8094 22.8125 28.8094 22.8125C28.8094 22.8125 28.8094 22.8125 28.8094 22.8125C28.8094 22.8125 28.8094 22.8125 28.8094 22.8125C28.8094 22.8125 28.8094 22.8125 28.8094 22.8125C28.8094 22.8125 28.8094 22.8125 28.8094 22.8125C28.8094 22.8125 28.8094 22.8125 28.8094 22.8125C28.8094 22.8125 28.8094 22.8125 28.8094 22.8125H28.8094C28.8094 22.8125 28.8094 22.8125 28.8094 22.8125C28.8094 22.8125 28.8094 22.8125 28.8094 22.8125C28.8094 22.8125 28.8094 22.8125 28.8094 25.8125C28.8094 28.8125 28.8094 28.8125 28.8094 28.8125C28.8094 28.8125 28.8094 28.8125 28.8094 28.8125C28.8094 28.8125 28.8094 28.8125 28.8094 28.8125H28.8094C28.8094 28.8125 28.8094 28.8125 28.8094 28.8125C28.8094 28.8125 28.8094 28.8125 28.8094 28.8125C28.8094 28.8125 28.8094 28.8125 28.8094 28.8125C28.8094 28.8125 28.8094 28.8125 28.8094 28.8125C28.8094 28.8125 28.8094 28.8125 28.8094 28.8125C28.8094 28.8125 28.8094 28.8125 28.8094 28.8125C28.8094 28.8125 28.8094 28.8125 28.8094 28.8125C28.8094 28.8125 28.8094 28.8125 28.8094 28.8125C28.8094 28.8125 28.8094 28.8125 28.8094 28.8125C28.8094 28.8125 28.8094 28.8125 28.8094 28.8125C28.8094 28.8125 28.8094 28.8125 28.8094 28.8125C28.8094 28.8125 28.8094 28.8125 28.8094 28.8125C28.8094 28.8125 28.8094 28.8125 28.8095 28.8125C28.8095 28.8125 28.8095 28.8125 28.8095 28.8125C28.8095 28.8125 28.8095 28.8125 28.8095 28.8125C28.8095 28.8125 28.8095 28.8125 28.8095 28.8125C28.8095 28.8125 28.8095 28.8125 28.8095 28.8125C28.8095 28.8125 28.8095 28.8125 28.8095 28.8125C28.8095 28.8125 28.8095 28.8125 28.8095 28.8125C28.8095 28.8125 28.8095 28.8125 28.8095 28.8125C28.8095 28.8125 28.8095 28.8125 28.8095 28.8125C28.8095 28.8125 28.8095 28.8125 28.8095 28.8125C28.8095 28.8125 28.8095 28.8125 28.8095 28.8125C28.8095 28.8125 28.8095 28.8125 28.8095 28.8125C28.8096 28.8125 28.8096 28.8125 28.8096 28.8125C28.8096 28.8125 28.8096 28.8125 28.8096 28.8125C28.8096 28.8125 28.8096 28.8125 28.8096 28.8125C28.8096 28.8125 28.8096 28.8125 28.8096 28.8125C28.8096 28.8125 28.8096 28.8125 28.8096 28.8125C28.8096 28.8125 28.8096 28.8125 28.8096 28.8125C28.8096 28.8125 28.8096 28.8125 28.8096 28.8125C28.8096 28.8125 28.8096 28.8125 28.8097 28.8125C28.8097 28.8125 28.8097 28.8125 28.8097 28.8125C28.8097 28.8125 28.8097 28.8125 28.8097 28.8125C28.8097 28.8125 28.8097 28.8125 28.8097 28.8125C28.8097 28.8125 28.8097 28.8125 28.8097 28.8125C28.8097 28.8125 28.8097 28.8125 28.8097 28.8125C28.8097 28.8125 28.8097 28.8125 28.8097 28.8125C28.8098 28.8125 28.8098 28.8125 28.8098 28.8125C28.8098 28.8125 28.8098 28.8125 28.8098 28.8125C28.8098 28.8125 28.8098 28.8125 28.8098 28.8125C28.8098 28.8125 28.8098 28.8125 28.8098 28.8125C28.8098 28.8125 28.8098 28.8125 28.8098 28.8125C28.8098 28.8125 28.8098 28.8125 28.8099 28.8125C28.8099 28.8125 28.8099 28.8125 28.8099 28.8125C28.8099 28.8125 28.8099 28.8125 28.8099 28.8125C28.8099 28.8125 28.8099 28.8125 28.8099 28.8125C28.8099 28.8125 28.8099 28.8125 28.8099 28.8125C28.8099 28.8125 28.8099 28.8125 28.81 28.8125C28.81 28.8125 28.81 28.8125 28.81 28.8125C28.81 28.8125 28.81 28.8125 28.81 28.8125C28.81 28.8125 28.81 28.8125 28.81 28.8125C28.81 28.8125 28.81 28.8125 28.81 28.8125C28.8101 28.8125 28.8101 28.8125 28.8101 28.8125C28.8101 28.8125 28.8101 28.8125 28.8101 28.8125C28.8101 28.8125 28.8101 28.8125 28.8101 28.8125C28.8101 28.8125 28.8101 28.8125 28.8101 28.8125C28.8101 28.8125 28.8102 28.8125 28.8102 28.8125C28.8102 28.8125 28.8102 28.8125 28.8102 28.8125C28.8102 28.8125 28.8102 28.8125 28.8102 28.8125C28.8102 28.8125 28.8102 28.8125 28.8102 28.8125C28.8102 28.8125 28.8103 28.8125 28.8103 28.8125C28.8103 28.8125 28.8103 28.8125 28.8103 28.8125C28.8103 28.8125 28.8103 28.8125 28.8103 28.8125C28.8103 28.8125 28.8103 28.8125 28.8103 28.8125C28.8104 28.8125 28.8104 28.8125 28.8104 28.8125C28.8104 28.8125 28.8104 28.8125 28.8104 28.8125C28.8104 28.8125 28.8104 28.8125 28.8104 28.8125C28.8104 28.8125 28.8104 28.8125 28.8105 28.8125C28.8105 28.8125 28.8105 28.8125 28.8105 28.8125C28.8105 28.8125 28.8105 28.8125 28.8105 28.8125C28.8105 28.8125 28.8105 28.8125 28.8105 28.8125C28.8106 28.8125 28.8106 28.8125 28.8106 28.8125C28.8106 28.8125 28.8106 28.8125 28.8106 28.8125C28.8106 28.8125 28.8106 28.8125 28.8106 28.8125C28.8107 28.8125 28.8107 28.8125 28.8107 28.8125C28.8107 28.8125 28.8107 28.8125 28.8107 28.8125C28.8107 28.8125 28.8107 28.8125 28.8107 28.8125C28.8107 28.8125 28.8108 28.8125 28.8108 28.8125C28.8108 28.8125 28.8108 28.8125 28.8108 28.8125C28.8108 28.8125 28.8108 28.8125 28.8108 28.8125C28.8109 28.8125 28.8109 28.8125 28.8109 28.8125C28.8109 28.8125 28.8109 28.8125 28.8109 28.8125C28.8109 28.8125 28.8109 28.8125 28.8109 28.8125C28.811 28.8125 28.811 28.8125 28.811 28.8125C28.811 28.8125 28.811 28.8125 28.811 28.8125C28.811 28.8125 28.811 28.8125 28.8111 28.8125C28.8111 28.8125 28.8111 28.8125 28.8111 28.8125C28.8111 28.8125 28.8111 28.8125 28.8111 28.8125C28.8111 28.8125 28.8111 28.8125 28.8112 28.8125C28.8112 28.8125 28.8112 28.8125 28.8112 28.8125C28.8112 28.8125 28.8112 28.8125 28.8112 28.8125C28.8113 28.8125 28.8113 28.8125 28.8113 28.8125C28.8113 28.8125 28.8113 28.8125 28.8113 28.8125C28.8113 28.8125 28.8113 28.8125 28.8114 28.8125C28.8114 28.8125 28.8114 28.8125 28.8114 28.8125C28.8114 28.8125 28.8114 28.8125 28.8114 28.8125C28.8114 28.8125 28.8115 28.8125 28.8115 28.8125C28.8115 28.8125 28.8115 28.8125 28.8115 28.8125C28.8115 28.8125 28.8115 28.8125 28.8116 28.8125C28.8116 28.8125 28.8116 28.8125 28.8116 28.8125C28.8116 28.8125 28.8116 28.8125 28.8116 28.8125C28.8117 28.8125 28.8117 28.8125 28.8117 28.8125C28.8117 28.8125 28.8117 28.8125 28.8117 28.8125C28.8117 28.8125 28.8118 28.8125 28.8118 28.8125C28.8118 28.8125 28.8118 28.8125 28.8118 28.8125C28.8118 28.8125 28.8118 28.8125 28.8119 28.8125C28.8119 28.8125 28.8119 28.8125 28.8119 28.8125C28.8119 28.8125 28.8119 28.8125 28.8119 28.8125C28.812 28.8125 28.812 28.8125 28.812 28.8125C28.812 28.8125 28.812 28.8125 28.812 28.8125C28.8121 28.8125 28.8121 28.8125 28.8121 28.8125C28.8121 28.8125 28.8121 28.8125 28.8121 28.8125C28.8121 28.8125 28.8122 28.8125 28.8122 28.8125C28.8122 28.8125 28.8122 28.8125 28.8122 28.8125C28.8122 28.8125 28.8123 28.8125 28.8123 28.8125C28.8123 28.8125 28.8123 28.8125 28.8123 28.8125C28.8123 28.8125 28.8124 28.8125 28.8124 28.8125C28.8124 28.8125 28.8124 28.8125 28.8124 28.8125C28.8124 28.8125 28.8125 28.8125 28.8125 28.8125C28.8125 28.8125 28.8125 28.8125 28.8125 28.8125C28.8125 28.8125 28.8126 28.8125 28.8126 28.8125C28.8126 28.8125 28.8126 28.8125 28.8126 28.8125C28.8126 28.8125 28.8127 28.8125 28.8127 28.8125C28.8127 28.8125 28.8127 28.8125 28.8127 28.8125C28.8127 28.8125 28.8128 28.8125 28.8128 28.8125C28.8128 28.8125 28.8128 28.8125 28.8128 28.8125C28.8128 28.8125 28.8129 28.8125 28.8129 28.8125C28.8129 28.8125 28.8129 28.8125 28.8129 28.8125C28.813 28.8125 28.813 28.8125 28.813 28.8125C28.813 28.8125 28.813 28.8125 28.813 28.8125C28.8131 28.8125 28.8131 28.8125 28.8131 28.8125C28.8131 28.8125 28.8131 28.8125 28.8132 28.8125C28.8132 28.8125 28.8132 28.8125 28.8132 28.8125C28.8132 28.8125 28.8132 28.8125 28.8133 28.8125C28.8133 28.8125 28.8133 28.8125 28.8133 28.8125C28.8133 28.8125 28.8134 28.8125 28.8134 28.8125C28.8134 28.8125 28.8134 28.8125 28.8134 28.8125C28.8134 28.8125 28.8135 28.8125 28.8135 28.8125C28.8135 28.8125 28.8135 28.8125 28.8135 28.8125C28.8136 28.8125 28.8136 28.8125 28.8136 28.8125C28.8136 28.8125 28.8136 28.8125 28.8137 28.8125C28.8137 28.8125 28.8137 28.8125 28.8137 28.8125C28.8137 28.8125 28.8138 28.8125 28.8138 28.8125C28.8138 28.8125 28.8138 28.8125 28.8138 28.8125C28.8139 28.8125 28.8139 28.8125 28.8139 28.8125C28.8139 28.8125 28.8139 28.8125 28.814 28.8125C28.814 28.8125 28.814 28.8125 28.814 28.8125C28.814 28.8125 28.8141 28.8125 28.8141 28.8125C28.8141 28.8125 28.8141 28.8125 28.8141 28.8125C28.8142 28.8125 28.8142 28.8125 28.8142 28.8125C28.8142 28.8125 28.8142 28.8125 28.8143 28.8125C28.8143 28.8125 28.8143 28.8125 28.8143 28.8125C28.8143 28.8125 28.8144 28.8125 28.8144 28.8125C28.8144 28.8125 28.8144 28.8125 28.8145 28.8125C28.8145 28.8125 28.8145 28.8125 28.8145 28.8125C28.8145 28.8125 28.8146 28.8125 28.8146 28.8125C28.8146 28.8125 28.8146 28.8125 28.8146 28.8125C28.8147 28.8125 28.8147 28.8125 28.8147 28.8125C28.8147 28.8125 28.8148 28.8125 28.8148 28.8125C28.8148 28.8125 28.8148 28.8125 28.8148 28.8125C28.8149 28.8125 28.8149 28.8125 28.8149 28.8125C28.8149 28.8125 28.815 28.8125 28.815 28.8125C28.815 28.8125 28.815 28.8125 28.815 28.8125C28.8151 28.8125 28.8151 28.8125 28.8151 28.8125C28.8151 28.8125 28.8152 28.8125 28.8152 28.8125C28.8152 28.8125 28.8152 28.8125 28.8152 28.8125C28.8153 28.8125 28.8153 28.8125 28.8153 28.8125C28.8153 28.8125 28.8154 28.8125 28.8154 28.8125C28.8154 28.8125 28.8154 28.8125 28.8155 28.8125C28.8155 28.8125 28.8155 28.8125 28.8155 28.8125C28.8155 28.8125 28.8156 28.8125 28.8156 28.8125C28.8156 28.8125 28.8156 28.8125 28.8157 28.8125C28.8157 28.8125 28.8157 28.8125 28.8157 28.8125C28.8158 28.8125 28.8158 28.8125 28.8158 28.8125C28.8158 28.8125 28.8159 28.8125 28.8159 28.8125C28.8159 28.8125 28.8159 28.8125 28.816 28.8125C28.816 28.8125 28.816 28.8125 28.816 28.8125C28.816 28.8125 28.8161 28.8125 28.8161 28.8125C28.8161 28.8125 28.8161 28.8125 28.8162 28.8125C28.8162 28.8125 28.8162 28.8125 28.8162 28.8125C28.8163 28.8125 28.8163 28.8125 28.8163 28.8125C28.8163 28.8125 28.8164 28.8125 28.8164 28.8125C28.8164 28.8125 28.8164 28.8125 28.8165 28.8125C28.8165 28.8125 28.8165 28.8125 28.8165 28.8125C28.8166 28.8125 28.8166 28.8125 28.8166 28.8125C28.8166 28.8125 28.8167 28.8125 28.8167 28.8125C28.8167 28.8125 28.8167 28.8125 28.8168 28.8125C28.8168 28.8125 28.8168 28.8125 28.8169 28.8125C28.8169 28.8125 28.8169 28.8125 28.8169 28.8125C28.817 28.8125 28.817 28.8125 28.817 28.8125C28.817 28.8125 28.8171 28.8125 28.8171 28.8125C28.8171 28.8125 28.8171 28.8125 28.8172 28.8125C28.8172 28.8125 28.8172 28.8125 28.8172 28.8125C28.8173 28.8125 28.8173 28.8125 28.8173 28.8125C28.8173 28.8125 28.8174 28.8125 28.8174 28.8125C28.8174 28.8125 28.8175 28.8125 28.8175 28.8125C28.8175 28.8125 28.8175 28.8125 28.8176 28.8125C28.8176 28.8125 28.8176 28.8125 28.8176 28.8125C28.8177 28.8125 28.8177 28.8125 28.8177 28.8125C28.8178 28.8125 28.8178 28.8125 28.8178 28.8125C28.8178 28.8125 28.8179 28.8125 28.8179 28.8125C28.8179 28.8125 28.8179 28.8125 28.818 28.8125C28.818 28.8125 28.818 28.8125 28.8181 28.8125C28.8181 28.8125 28.8181 28.8125 28.8181 28.8125C28.8182 28.8125 28.8182 28.8125 28.8182 28.8125C28.8183 28.8125 28.8183 28.8125 28.8183 28.8125C28.8183 28.8125 28.8184 28.8125 28.8184 28.8125C28.8184 28.8125 28.8184 28.8125 28.8185 28.8125C28.8185 28.8125 28.8185 28.8125 28.8186 28.8125C28.8186 28.8125 28.8186 28.8125 28.8186 28.8125C28.8187 28.8125 28.8187 28.8125 28.8187 28.8125C28.8188 28.8125 28.8188 28.8125 28.8188 28.8125C28.8189 28.8125 28.8189 28.8125 28.8189 28.8125C28.8189 28.8125 28.819 28.8125 28.819 28.8125C28.819 28.8125 28.8191 28.8125 28.8191 28.8125C28.8191 28.8125 28.8191 28.8125 28.8192 28.8125C28.8192 28.8125 28.8192 28.8125 28.8193 28.8125C28.8193 28.8125 28.8193 28.8125 28.8194 28.8125C28.8194 28.8125 28.8194 28.8125 28.8194 28.8125C28.8195 28.8125 28.8195 28.8125 28.8195 28.8125C28.8196 28.8125 28.8196 28.8125 28.8196 28.8125C28.8197 28.8125 28.8197 28.8125 28.8197 28.8125C28.8197 28.8125 28.8198 28.8125 28.8198 28.8125C28.8198 28.8125 28.8199 28.8125 28.8199 28.8125C28.8199 28.8125 28.82 28.8125 28.82 28.8125C28.82 28.8125 28.82 28.8125 28.8201 28.8125C28.8201 28.8125 28.8201 28.8125 28.8202 28.8125C28.8202 28.8125 28.8202 28.8125 28.8203 28.8125C28.8203 28.8125 28.8203 28.8125 28.8204 28.8125C28.8204 28.8125 28.8204 28.8125 28.8205 28.8125C28.8205 28.8125 28.8205 28.8125 28.8205 28.8125C28.8206 28.8125 28.8206 28.8125 28.8206 28.8125C28.8207 28.8125 28.8207 28.8125 28.8207 28.8125C28.8208 28.8125 28.8208 28.8125 28.8208 28.8125C28.8209 28.8125 28.8209 28.8125 28.8209 28.8125C28.821 28.8125 28.821 28.8125 28.821 28.8125C28.8211 28.8125 28.8211 28.8125 28.8211 28.8125C28.8212 28.8125 28.8212 28.8125 28.8212 28.8125C28.8212 28.8125 28.8213 28.8125 28.8213 28.8125C28.8213 28.8125 28.8214 28.8125 28.8214 28.8125C28.8214 28.8125 28.8215 28.8125 28.8215 28.8125C28.8215 28.8125 28.8216 28.8125 28.8216 28.8125C28.8216 28.8125 28.8217 28.8125 28.8217 28.8125C28.8217 28.8125 28.8218 28.8125 28.8218 28.8125C28.8218 28.8125 28.8219 28.8125 28.8219 28.8125C28.8219 28.8125 28.822 28.8125 28.822 28.8125C28.822 28.8125 28.8221 28.8125 28.8221 28.8125C28.8221 28.8125 28.8222 28.8125 28.8222 28.8125C28.8222 28.8125 28.8223 28.8125 28.8223 28.8125C28.8223 28.8125 28.8224 28.8125 28.8224 28.8125C28.8224 28.8125 28.8225 28.8125 28.8225 28.8125V22.8125ZM28.8525 22.8126L20.085 22.7251L20.0251 28.7248L28.7926 28.8123L28.8525 22.8126ZM20.055 22.725C21.0067 22.725 21.7821 23.5015 21.7592 24.4664L15.7609 24.3236C15.7029 26.7585 17.6683 28.725 20.055 28.725V22.725ZM21.76 24.395C21.76 25.3865 20.9593 26.1 20.0725 26.1V20.1C17.7508 20.1 15.76 21.9685 15.76 24.395H21.76ZM20.0725 23.1C20.0725 20.1 20.0725 23.1 20.0725 26.1C20.0725 26.1 20.0725 26.1 20.0725 26.1C20.0725 26.1 20.0725 26.1 20.0725 26.1H20.0725C20.0725 26.1 20.0725 26.1 20.0725 26.1H20.0725C20.0725 26.1 20.0725 26.1 20.0725 26.1C20.0725 26.1 20.0725 26.1 20.0725 26.1C20.0725 26.1 20.0725 26.1 20.0725 26.1H20.0725C20.0725 26.1 20.0725 26.1 20.0725 26.1C20.0725 26.1 20.0725 26.1 20.0725 26.1C20.0725 26.1 20.0725 26.1 20.0725 26.1H20.0725C20.0725 26.1 20.0725 26.1 20.0725 26.1C20.0725 26.1 20.0725 26.1 20.0725 26.1C20.0725 26.1 20.0725 26.1 20.0725 26.1C20.0725 26.1 20.0725 26.1 20.0725 26.1C20.0725 26.1 20.0725 26.1 20.0725 26.1C20.0725 26.1 20.0725 26.1 20.0725 26.1C20.0725 26.1 20.0725 26.1 20.0725 26.1C20.0725 26.1 20.0725 26.1 20.0725 26.1C20.0725 26.1 20.0725 26.1 20.0725 26.1C20.0725 26.1 20.0725 26.1 20.0725 26.1C20.0725 26.1 20.0725 26.1 20.0725 26.1C20.0725 26.1 20.0725 26.1 20.0725 26.1C20.0725 26.1 20.0725 26.1 20.0725 26.1C20.0725 26.1 20.0725 26.1 20.0725 26.1C20.0725 26.1 20.0725 26.1 20.0725 26.1C20.0725 26.1 20.0725 26.1 20.0725 26.1C20.0725 26.1 20.0725 26.1 20.0725 26.1C20.0725 26.1 20.0725 26.1 20.0725 26.1C20.0725 26.1 20.0725 26.1 20.0725 26.1C20.0725 26.1 20.0725 26.1 20.0725 26.1C20.0725 26.1 20.0725 26.1 20.0725 26.1C20.0725 26.1 20.0725 26.1 20.0725 26.1C20.0725 26.1 20.0725 26.1 20.0725 26.1C20.0725 26.1 20.0725 26.1 20.0725 26.1C20.0725 26.1 20.0725 26.1 20.0725 26.1C20.0725 26.1 20.0725 26.1 20.0725 26.1C20.0725 26.1 20.0725 26.1 20.0725 26.1C20.0725 26.1 20.0725 26.1 20.0725 26.1C20.0725 26.1 20.0725 26.1 20.0725 26.1C20.0725 26.1 20.0725 26.1 20.0725 26.1C20.0725 26.1 20.0725 26.1 20.0725 26.1C20.0725 26.1 20.0725 26.1 20.0725 26.1C20.0725 26.1 20.0725 26.1 20.0725 26.1C20.0725 26.1 20.0725 26.1 20.0725 26.1C20.0725 26.1 20.0725 26.1 20.0725 26.1C20.0725 26.1 20.0725 26.1 20.0725 26.1C20.0725 26.1 20.0725 26.1 20.0725 26.1C20.0725 26.1 20.0726 26.1 20.0726 26.1C20.0726 26.1 20.0726 26.1 20.0726 26.1C20.0726 26.1 20.0726 26.1 20.0726 26.1C20.0726 26.1 20.0726 26.1 20.0726 26.1C20.0726 26.1 20.0726 26.1 20.0726 26.1C20.0726 26.1 20.0726 26.1 20.0726 26.1C20.0726 26.1 20.0726 26.1 20.0726 26.1C20.0726 26.1 20.0726 26.1 20.0726 26.1C20.0726 26.1 20.0726 26.1 20.0726 26.1C20.0726 26.1 20.0726 26.1 20.0726 26.1C20.0726 26.1 20.0726 26.1 20.0726 26.1C20.0726 26.1 20.0726 26.1 20.0726 26.1C20.0726 26.1 20.0726 26.1 20.0726 26.1C20.0726 26.1 20.0726 26.1 20.0726 26.1C20.0726 26.1 20.0726 26.1 20.0726 26.1C20.0726 26.1 20.0726 26.1 20.0726 26.1C20.0726 26.1 20.0726 26.1 20.0726 26.1C20.0726 26.1 20.0726 26.1 20.0726 26.1C20.0726 26.1 20.0726 26.1 20.0726 26.1C20.0726 26.1 20.0726 26.1 20.0726 26.1C20.0726 26.1 20.0726 26.1 20.0726 26.1C20.0726 26.1 20.0726 26.1 20.0726 26.1C20.0726 26.1 20.0726 26.1 20.0726 26.1C20.0726 26.1 20.0726 26.1 20.0726 26.1C20.0726 26.1 20.0726 26.1 20.0726 26.1C20.0726 26.1 20.0726 26.1 20.0726 26.1C20.0726 26.1 20.0726 26.1 20.0726 26.1C20.0726 26.1 20.0726 26.1 20.0726 26.1C20.0726 26.1 20.0726 26.1 20.0726 26.1C20.0726 26.1 20.0726 26.1 20.0726 26.1C20.0726 26.1 20.0726 26.1 20.0726 26.1C20.0726 26.1 20.0726 26.1 20.0726 26.1C20.0726 26.1 20.0726 26.1 20.0726 26.1C20.0726 26.1 20.0726 26.1 20.0726 26.1C20.0726 26.1 20.0726 26.1 20.0726 26.1C20.0726 26.1 20.0726 26.1 20.0726 26.1C20.0726 26.1 20.0726 26.1 20.0726 26.1C20.0726 26.1 20.0726 26.1 20.0726 26.1C20.0726 26.1 20.0726 26.1 20.0727 26.1C20.0727 26.1 20.0727 26.1 20.0727 26.1C20.0727 26.1 20.0727 26.1 20.0727 26.1C20.0727 26.1 20.0727 26.1 20.0727 26.1C20.0727 26.1 20.0727 26.1 20.0727 26.1C20.0727 26.1 20.0727 26.1 20.0727 26.1C20.0727 26.1 20.0727 26.1 20.0727 26.1C20.0727 26.1 20.0727 26.1 20.0727 26.1C20.0727 26.1 20.0727 26.1 20.0727 26.1C20.0727 26.1 20.0727 26.1 20.0727 26.1C20.0727 26.1 20.0727 26.1 20.0727 26.1C20.0727 26.1 20.0727 26.1 20.0727 26.1C20.0727 26.1 20.0727 26.1 20.0727 26.1C20.0727 26.1 20.0727 26.1 20.0727 26.1C20.0727 26.1 20.0727 26.1 20.0727 26.1C20.0727 26.1 20.0727 26.1 20.0727 26.1C20.0727 26.1 20.0727 26.1 20.0727 26.1C20.0727 26.1 20.0727 26.1 20.0727 26.1C20.0727 26.1 20.0727 26.1 20.0727 26.1C20.0727 26.1 20.0727 26.1 20.0727 26.1C20.0727 26.1 20.0727 26.1 20.0727 26.1C20.0727 26.1 20.0727 26.1 20.0728 26.1C20.0728 26.1 20.0728 26.1 20.0728 26.1C20.0728 26.1 20.0728 26.1 20.0728 26.1C20.0728 26.1 20.0728 26.1 20.0728 26.1C20.0728 26.1 20.0728 26.1 20.0728 26.1C20.0728 26.1 20.0728 26.1 20.0728 26.1C20.0728 26.1 20.0728 26.1 20.0728 26.1C20.0728 26.1 20.0728 26.1 20.0728 26.1C20.0728 26.1 20.0728 26.1 20.0728 26.1C20.0728 26.1 20.0728 26.1 20.0728 26.1C20.0728 26.1 20.0728 26.1 20.0728 26.1C20.0728 26.1 20.0728 26.1 20.0728 26.1C20.0728 26.1 20.0728 26.1 20.0728 26.1C20.0728 26.1 20.0728 26.1 20.0728 26.1C20.0728 26.1 20.0728 26.1 20.0728 26.1C20.0728 26.1 20.0728 26.1 20.0728 26.1C20.0728 26.1 20.0729 26.1 20.0729 26.1C20.0729 26.1 20.0729 26.1 20.0729 26.1C20.0729 26.1 20.0729 26.1 20.0729 26.1C20.0729 26.1 20.0729 26.1 20.0729 26.1C20.0729 26.1 20.0729 26.1 20.0729 26.1C20.0729 26.1 20.0729 26.1 20.0729 26.1C20.0729 26.1 20.0729 26.1 20.0729 26.1C20.0729 26.1 20.0729 26.1 20.0729 26.1C20.0729 26.1 20.0729 26.1 20.0729 26.1C20.0729 26.1 20.0729 26.1 20.0729 26.1C20.0729 26.1 20.0729 26.1 20.0729 26.1C20.0729 26.1 20.0729 26.1 20.0729 26.1C20.0729 26.1 20.0729 26.1 20.073 26.1C20.073 26.1 20.073 26.1 20.073 26.1C20.073 26.1 20.073 26.1 20.073 26.1C20.073 26.1 20.073 26.1 20.073 26.1C20.073 26.1 20.073 26.1 20.073 26.1C20.073 26.1 20.073 26.1 20.073 26.1C20.073 26.1 20.073 26.1 20.073 26.1C20.073 26.1 20.073 26.1 20.073 26.1C20.073 26.1 20.073 26.1 20.073 26.1C20.073 26.1 20.073 26.1 20.073 26.1C20.073 26.1 20.073 26.1 20.073 26.1C20.073 26.1 20.0731 26.1 20.0731 26.1C20.0731 26.1 20.0731 26.1 20.0731 26.1C20.0731 26.1 20.0731 26.1 20.0731 26.1C20.0731 26.1 20.0731 26.1 20.0731 26.1C20.0731 26.1 20.0731 26.1 20.0731 26.1C20.0731 26.1 20.0731 26.1 20.0731 26.1C20.0731 26.1 20.0731 26.1 20.0731 26.1C20.0731 26.1 20.0731 26.1 20.0731 26.1C20.0731 26.1 20.0731 26.1 20.0731 26.1C20.0731 26.1 20.0731 26.1 20.0731 26.1C20.0732 26.1 20.0732 26.1 20.0732 26.1C20.0732 26.1 20.0732 26.1 20.0732 26.1C20.0732 26.1 20.0732 26.1 20.0732 26.1C20.0732 26.1 20.0732 26.1 20.0732 26.1C20.0732 26.1 20.0732 26.1 20.0732 26.1C20.0732 26.1 20.0732 26.1 20.0732 26.1C20.0732 26.1 20.0732 26.1 20.0732 26.1C20.0732 26.1 20.0732 26.1 20.0732 26.1C20.0732 26.1 20.0733 26.1 20.0733 26.1C20.0733 26.1 20.0733 26.1 20.0733 26.1C20.0733 26.1 20.0733 26.1 20.0733 26.1C20.0733 26.1 20.0733 26.1 20.0733 26.1C20.0733 26.1 20.0733 26.1 20.0733 26.1C20.0733 26.1 20.0733 26.1 20.0733 26.1C20.0733 26.1 20.0733 26.1 20.0733 26.1C20.0733 26.1 20.0733 26.1 20.0733 26.1C20.0733 26.1 20.0734 26.1 20.0734 26.1C20.0734 26.1 20.0734 26.1 20.0734 26.1C20.0734 26.1 20.0734 26.1 20.0734 26.1C20.0734 26.1 20.0734 26.1 20.0734 26.1C20.0734 26.1 20.0734 26.1 20.0734 26.1C20.0734 26.1 20.0734 26.1 20.0734 26.1C20.0734 26.1 20.0734 26.1 20.0734 26.1C20.0734 26.1 20.0735 26.1 20.0735 26.1C20.0735 26.1 20.0735 26.1 20.0735 26.1C20.0735 26.1 20.0735 26.1 20.0735 26.1C20.0735 26.1 20.0735 26.1 20.0735 26.1C20.0735 26.1 20.0735 26.1 20.0735 26.1C20.0735 26.1 20.0735 26.1 20.0735 26.1C20.0735 26.1 20.0735 26.1 20.0735 26.1C20.0736 26.1 20.0736 26.1 20.0736 26.1C20.0736 26.1 20.0736 26.1 20.0736 26.1C20.0736 26.1 20.0736 26.1 20.0736 26.1C20.0736 26.1 20.0736 26.1 20.0736 26.1C20.0736 26.1 20.0736 26.1 20.0736 26.1C20.0736 26.1 20.0736 26.1 20.0736 26.1C20.0736 26.1 20.0737 26.1 20.0737 26.1C20.0737 26.1 20.0737 26.1 20.0737 26.1C20.0737 26.1 20.0737 26.1 20.0737 26.1C20.0737 26.1 20.0737 26.1 20.0737 26.1C20.0737 26.1 20.0737 26.1 20.0737 26.1C20.0737 26.1 20.0737 26.1 20.0737 26.1C20.0738 26.1 20.0738 26.1 20.0738 26.1C20.0738 26.1 20.0738 26.1 20.0738 26.1C20.0738 26.1 20.0738 26.1 20.0738 26.1C20.0738 26.1 20.0738 26.1 20.0738 26.1C20.0738 26.1 20.0738 26.1 20.0738 26.1C20.0738 26.1 20.0738 26.1 20.0739 26.1C20.0739 26.1 20.0739 26.1 20.0739 26.1C20.0739 26.1 20.0739 26.1 20.0739 26.1C20.0739 26.1 20.0739 26.1 20.0739 26.1C20.0739 26.1 20.0739 26.1 20.0739 26.1C20.0739 26.1 20.0739 26.1 20.0739 26.1C20.074 26.1 20.074 26.1 20.074 26.1C20.074 26.1 20.074 26.1 20.074 26.1C20.074 26.1 20.074 26.1 20.074 26.1C20.074 26.1 20.074 26.1 20.074 26.1C20.074 26.1 20.074 26.1 20.074 26.1C20.0741 26.1 20.0741 26.1 20.0741 26.1C20.0741 26.1 20.0741 26.1 20.0741 26.1C20.0741 26.1 20.0741 26.1 20.0741 26.1C20.0741 26.1 20.0741 26.1 20.0741 26.1C20.0741 26.1 20.0741 26.1 20.0741 26.1C20.0742 26.1 20.0742 26.1 20.0742 26.1C20.0742 26.1 20.0742 26.1 20.0742 26.1C20.0742 26.1 20.0742 26.1 20.0742 26.1C20.0742 26.1 20.0742 26.1 20.0742 26.1C20.0742 26.1 20.0742 26.1 20.0743 26.1C20.0743 26.1 20.0743 26.1 20.0743 26.1C20.0743 26.1 20.0743 26.1 20.0743 26.1C20.0743 26.1 20.0743 26.1 20.0743 26.1C20.0743 26.1 20.0743 26.1 20.0743 26.1C20.0744 26.1 20.0744 26.1 20.0744 26.1C20.0744 26.1 20.0744 26.1 20.0744 26.1C20.0744 26.1 20.0744 26.1 20.0744 26.1C20.0744 26.1 20.0744 26.1 20.0744 26.1C20.0744 26.1 20.0745 26.1 20.0745 26.1C20.0745 26.1 20.0745 26.1 20.0745 26.1C20.0745 26.1 20.0745 26.1 20.0745 26.1C20.0745 26.1 20.0745 26.1 20.0745 26.1C20.0745 26.1 20.0745 26.1 20.0746 26.1C20.0746 26.1 20.0746 26.1 20.0746 26.1C20.0746 26.1 20.0746 26.1 20.0746 26.1C20.0746 26.1 20.0746 26.1 20.0746 26.1C20.0746 26.1 20.0746 26.1 20.0747 26.1C20.0747 26.1 20.0747 26.1 20.0747 26.1C20.0747 26.1 20.0747 26.1 20.0747 26.1C20.0747 26.1 20.0747 26.1 20.0747 26.1C20.0747 26.1 20.0747 26.1 20.0748 26.1C20.0748 26.1 20.0748 26.1 20.0748 26.1C20.0748 26.1 20.0748 26.1 20.0748 26.1C20.0748 26.1 20.0748 26.1 20.0748 26.1C20.0748 26.1 20.0749 26.1 20.0749 26.1C20.0749 26.1 20.0749 26.1 20.0749 26.1C20.0749 26.1 20.0749 26.1 20.0749 26.1C20.0749 26.1 20.0749 26.1 20.0749 26.1C20.075 26.1 20.075 26.1 20.075 26.1C20.075 26.1 20.075 26.1 20.075 26.1C20.075 26.1 20.075 26.1 20.075 26.1C20.075 26.1 20.075 26.1 20.0751 26.1C20.0751 26.1 20.0751 26.1 20.0751 26.1C20.0751 26.1 20.0751 26.1 20.0751 26.1C20.0751 26.1 20.0751 26.1 20.0751 26.1C20.0752 26.1 20.0752 26.1 20.0752 26.1C20.0752 26.1 20.0752 26.1 20.0752 26.1C20.0752 26.1 20.0752 26.1 20.0752 26.1C20.0752 26.1 20.0753 26.1 20.0753 26.1C20.0753 26.1 20.0753 26.1 20.0753 26.1C20.0753 26.1 20.0753 26.1 20.0753 26.1C20.0753 26.1 20.0753 26.1 20.0754 26.1C20.0754 26.1 20.0754 26.1 20.0754 26.1C20.0754 26.1 20.0754 26.1 20.0754 26.1C20.0754 26.1 20.0754 26.1 20.0754 26.1C20.0755 26.1 20.0755 26.1 20.0755 26.1C20.0755 26.1 20.0755 26.1 20.0755 26.1C20.0755 26.1 20.0755 26.1 20.0755 26.1C20.0755 26.1 20.0756 26.1 20.0756 26.1C20.0756 26.1 20.0756 26.1 20.0756 26.1C20.0756 26.1 20.0756 26.1 20.0756 26.1C20.0756 26.1 20.0757 26.1 20.0757 26.1C20.0757 26.1 20.0757 26.1 20.0757 26.1C20.0757 26.1 20.0757 26.1 20.0757 26.1C20.0757 26.1 20.0758 26.1 20.0758 26.1C20.0758 26.1 20.0758 26.1 20.0758 26.1C20.0758 26.1 20.0758 26.1 20.0758 26.1C20.0758 26.1 20.0759 26.1 20.0759 26.1C20.0759 26.1 20.0759 26.1 20.0759 26.1C20.0759 26.1 20.0759 26.1 20.0759 26.1C20.0759 26.1 20.076 26.1 20.076 26.1C20.076 26.1 20.076 26.1 20.076 26.1C20.076 26.1 20.076 26.1 20.076 26.1C20.0761 26.1 20.0761 26.1 20.0761 26.1C20.0761 26.1 20.0761 26.1 20.0761 26.1C20.0761 26.1 20.0761 26.1 20.0761 26.1C20.0762 26.1 20.0762 26.1 20.0762 26.1C20.0762 26.1 20.0762 26.1 20.0762 26.1C20.0762 26.1 20.0762 26.1 20.0763 26.1C20.0763 26.1 20.0763 26.1 20.0763 26.1C20.0763 26.1 20.0763 26.1 20.0763 26.1C20.0763 26.1 20.0764 26.1 20.0764 26.1C20.0764 26.1 20.0764 26.1 20.0764 26.1C20.0764 26.1 20.0764 26.1 20.0764 26.1C20.0765 26.1 20.0765 26.1 20.0765 26.1C20.0765 26.1 20.0765 26.1 20.0765 26.1C20.0765 26.1 20.0765 26.1 20.0766 26.1C20.0766 26.1 20.0766 26.1 20.0766 26.1C20.0766 26.1 20.0766 26.1 20.0766 26.1C20.0766 26.1 20.0767 26.1 20.0767 26.1C20.0767 26.1 20.0767 26.1 20.0767 26.1C20.0767 26.1 20.0767 26.1 20.0768 26.1C20.0768 26.1 20.0768 26.1 20.0768 26.1C20.0768 26.1 20.0768 26.1 20.0768 26.1C20.0768 26.1 20.0769 26.1 20.0769 26.1C20.0769 26.1 20.0769 26.1 20.0769 26.1C20.0769 26.1 20.0769 26.1 20.077 26.1C20.077 26.1 20.077 26.1 20.077 26.1C20.077 26.1 20.077 26.1 20.077 26.1C20.0771 26.1 20.0771 26.1 20.0771 26.1C20.0771 26.1 20.0771 26.1 20.0771 26.1C20.0771 26.1 20.0771 26.1 20.0772 26.1C20.0772 26.1 20.0772 26.1 20.0772 26.1C20.0772 26.1 20.0772 26.1 20.0772 26.1C20.0773 26.1 20.0773 26.1 20.0773 26.1C20.0773 26.1 20.0773 26.1 20.0773 26.1C20.0773 26.1 20.0774 26.1 20.0774 26.1C20.0774 26.1 20.0774 26.1 20.0774 26.1C20.0774 26.1 20.0775 26.1 20.0775 26.1C20.0775 26.1 20.0775 26.1 20.0775 26.1C20.0775 26.1 20.0775 26.1 20.0776 26.1C20.0776 26.1 20.0776 26.1 20.0776 26.1C20.0776 26.1 20.0776 26.1 20.0776 26.1C20.0777 26.1 20.0777 26.1 20.0777 26.1C20.0777 26.1 20.0777 26.1 20.0777 26.1C20.0777 26.1 20.0778 26.1 20.0778 26.1C20.0778 26.1 20.0778 26.1 20.0778 26.1C20.0778 26.1 20.0779 26.1 20.0779 26.1C20.0779 26.1 20.0779 26.1 20.0779 26.1C20.0779 26.1 20.078 26.1 20.078 26.1C20.078 26.1 20.078 26.1 20.078 26.1C20.078 26.1 20.078 26.1 20.0781 26.1C20.0781 26.1 20.0781 26.1 20.0781 26.1C20.0781 26.1 20.0781 26.1 20.0782 26.1C20.0782 26.1 20.0782 26.1 20.0782 26.1C20.0782 26.1 20.0782 26.1 20.0783 26.1C20.0783 26.1 20.0783 26.1 20.0783 26.1C20.0783 26.1 20.0783 26.1 20.0784 26.1C20.0784 26.1 20.0784 26.1 20.0784 26.1C20.0784 26.1 20.0784 26.1 20.0785 26.1C20.0785 26.1 20.0785 26.1 20.0785 26.1C20.0785 26.1 20.0785 26.1 20.0786 26.1C20.0786 26.1 20.0786 26.1 20.0786 26.1C20.0786 26.1 20.0786 26.1 20.0787 26.1C20.0787 26.1 20.0787 26.1 20.0787 26.1C20.0787 26.1 20.0787 26.1 20.0788 26.1C20.0788 26.1 20.0788 26.1 20.0788 26.1C20.0788 26.1 20.0788 26.1 20.0789 26.1C20.0789 26.1 20.0789 26.1 20.0789 26.1C20.0789 26.1 20.0789 26.1 20.079 26.1C20.079 26.1 20.079 26.1 20.079 26.1C20.079 26.1 20.0791 26.1 20.0791 26.1C20.0791 26.1 20.0791 26.1 20.0791 26.1C20.0791 26.1 20.0792 26.1 20.0792 26.1C20.0792 26.1 20.0792 26.1 20.0792 26.1C20.0792 26.1 20.0793 26.1 20.0793 26.1C20.0793 26.1 20.0793 26.1 20.0793 26.1C20.0794 26.1 20.0794 26.1 20.0794 26.1C20.0794 26.1 20.0794 26.1 20.0794 26.1C20.0795 26.1 20.0795 26.1 20.0795 26.1C20.0795 26.1 20.0795 26.1 20.0796 26.1C20.0796 26.1 20.0796 26.1 20.0796 26.1C20.0796 26.1 20.0797 26.1 20.0797 26.1C20.0797 26.1 20.0797 26.1 20.0797 26.1C20.0797 26.1 20.0798 26.1 20.0798 26.1C20.0798 26.1 20.0798 26.1 20.0798 26.1C20.0799 26.1 20.0799 26.1 20.0799 26.1C20.0799 26.1 20.0799 26.1 20.08 26.1C20.08 26.1 20.08 26.1 20.08 26.1C20.08 26.1 20.0801 26.1 20.0801 26.1C20.0801 26.1 20.0801 26.1 20.0801 26.1C20.0802 26.1 20.0802 26.1 20.0802 26.1C20.0802 26.1 20.0802 26.1 20.0803 26.1C20.0803 26.1 20.0803 26.1 20.0803 26.1C20.0803 26.1 20.0804 26.1 20.0804 26.1C20.0804 26.1 20.0804 26.1 20.0804 26.1C20.0805 26.1 20.0805 26.1 20.0805 26.1C20.0805 26.1 20.0805 26.1 20.0806 26.1C20.0806 26.1 20.0806 26.1 20.0806 26.1C20.0806 26.1 20.0807 26.1 20.0807 26.1C20.0807 26.1 20.0807 26.1 20.0807 26.1C20.0808 26.1 20.0808 26.1 20.0808 26.1C20.0808 26.1 20.0808 26.1 20.0809 26.1C20.0809 26.1 20.0809 26.1 20.0809 26.1C20.0809 26.1 20.081 26.1 20.081 26.1C20.081 26.1 20.081 26.1 20.0811 26.1C20.0811 26.1 20.0811 26.1 20.0811 26.1C20.0811 26.1 20.0812 26.1 20.0812 26.1C20.0812 26.1 20.0812 26.1 20.0812 26.1C20.0813 26.1 20.0813 26.1 20.0813 26.1C20.0813 26.1 20.0814 26.1 20.0814 26.1C20.0814 26.1 20.0814 26.1 20.0814 26.1C20.0815 26.1 20.0815 26.1 20.0815 26.1C20.0815 26.1 20.0815 26.1 20.0816 26.1C20.0816 26.1 20.0816 26.1 20.0816 26.1C20.0817 26.1 20.0817 26.1 20.0817 26.1C20.0817 26.1 20.0817 26.1 20.0818 26.1C20.0818 26.1 20.0818 26.1 20.0818 26.1C20.0819 26.1 20.0819 26.1 20.0819 26.1C20.0819 26.1 20.082 26.1 20.082 26.1C20.082 26.1 20.082 26.1 20.082 26.1C20.0821 26.1 20.0821 26.1 20.0821 26.1C20.0821 26.1 20.0822 26.1 20.0822 26.1C20.0822 26.1 20.0822 26.1 20.0822 26.1C20.0823 26.1 20.0823 26.1 20.0823 26.1C20.0823 26.1 20.0824 26.1 20.0824 26.1C20.0824 26.1 20.0824 26.1 20.0825 26.1C20.0825 26.1 20.0825 26.1 20.0825 26.1C20.0826 26.1 20.0826 26.1 20.0826 26.1C20.0826 26.1 20.0826 26.1 20.0827 26.1C20.0827 26.1 20.0827 26.1 20.0827 26.1C20.0828 26.1 20.0828 26.1 20.0828 26.1C20.0828 26.1 20.0829 26.1 20.0829 26.1C20.0829 26.1 20.0829 26.1 20.083 26.1C20.083 26.1 20.083 26.1 20.083 26.1C20.0831 26.1 20.0831 26.1 20.0831 26.1C20.0831 26.1 20.0832 26.1 20.0832 26.1C20.0832 26.1 20.0832 26.1 20.0833 26.1C20.0833 26.1 20.0833 26.1 20.0833 26.1C20.0833 26.1 20.0834 26.1 20.0834 26.1C20.0834 26.1 20.0834 26.1 20.0835 26.1C20.0835 26.1 20.0835 26.1 20.0835 26.1C20.0836 26.1 20.0836 26.1 20.0836 26.1C20.0837 26.1 20.0837 26.1 20.0837 26.1C20.0837 26.1 20.0838 26.1 20.0838 26.1C20.0838 26.1 20.0838 26.1 20.0839 26.1C20.0839 26.1 20.0839 26.1 20.0839 26.1C20.084 26.1 20.084 26.1 20.084 26.1C20.084 26.1 20.0841 26.1 20.0841 26.1C20.0841 26.1 20.0841 26.1 20.0842 26.1C20.0842 26.1 20.0842 26.1 20.0842 26.1C20.0843 26.1 20.0843 26.1 20.0843 26.1C20.0843 26.1 20.0844 26.1 20.0844 26.1C20.0844 26.1 20.0845 26.1 20.0845 26.1C20.0845 26.1 20.0845 26.1 20.0846 26.1C20.0846 26.1 20.0846 26.1 20.0846 26.1C20.0847 26.1 20.0847 26.1 20.0847 26.1C20.0847 26.1 20.0848 26.1 20.0848 26.1C20.0848 26.1 20.0849 26.1 20.0849 26.1C20.0849 26.1 20.0849 26.1 20.085 26.1C20.085 26.1 20.085 26.1 20.085 26.1C20.0851 26.1 20.0851 26.1 20.0851 26.1C20.0852 26.1 20.0852 26.1 20.0852 26.1C20.0852 26.1 20.0853 26.1 20.0853 26.1C20.0853 26.1 20.0853 26.1 20.0854 26.1C20.0854 26.1 20.0854 26.1 20.0855 26.1C20.0855 26.1 20.0855 26.1 20.0855 26.1C20.0856 26.1 20.0856 26.1 20.0856 26.1C20.0857 26.1 20.0857 26.1 20.0857 26.1C20.0857 26.1 20.0858 26.1 20.0858 26.1C20.0858 26.1 20.0859 26.1 20.0859 26.1C20.0859 26.1 20.0859 26.1 20.086 26.1C20.086 26.1 20.086 26.1 20.0861 26.1C20.0861 26.1 20.0861 26.1 20.0861 26.1C20.0862 26.1 20.0862 26.1 20.0862 26.1C20.0863 26.1 20.0863 26.1 20.0863 26.1C20.0863 26.1 20.0864 26.1 20.0864 26.1C20.0864 26.1 20.0865 26.1 20.0865 26.1C20.0865 26.1 20.0866 26.1 20.0866 26.1C20.0866 26.1 20.0866 26.1 20.0867 26.1C20.0867 26.1 20.0867 26.1 20.0868 26.1C20.0868 26.1 20.0868 26.1 20.0868 26.1C20.0869 26.1 20.0869 26.1 20.0869 26.1C20.087 26.1 20.087 26.1 20.087 26.1C20.0871 26.1 20.0871 26.1 20.0871 26.1C20.0871 26.1 20.0872 26.1 20.0872 26.1C20.0872 26.1 20.0873 26.1 20.0873 26.1C20.0873 26.1 20.0874 26.1 20.0874 26.1C20.0874 26.1 20.0875 26.1 20.0875 26.1C20.0875 26.1 20.0875 26.1 20.0876 26.1C20.0876 26.1 20.0876 26.1 20.0877 26.1C20.0877 26.1 20.0877 26.1 20.0878 26.1C20.0878 26.1 20.0878 26.1 20.0879 26.1C20.0879 26.1 20.0879 26.1 20.088 26.1C20.088 26.1 20.088 26.1 20.088 26.1C20.0881 26.1 20.0881 26.1 20.0881 26.1C20.0882 26.1 20.0882 26.1 20.0882 26.1C20.0883 26.1 20.0883 26.1 20.0883 26.1C20.0884 26.1 20.0884 26.1 20.0884 26.1C20.0885 26.1 20.0885 26.1 20.0885 26.1C20.0886 26.1 20.0886 26.1 20.0886 26.1C20.0887 26.1 20.0887 26.1 20.0887 26.1C20.0888 26.1 20.0888 26.1 20.0888 26.1C20.0888 26.1 20.0889 26.1 20.0889 26.1C20.0889 26.1 20.089 26.1 20.089 26.1C20.089 26.1 20.0891 26.1 20.0891 26.1C20.0891 26.1 20.0892 26.1 20.0892 26.1C20.0892 26.1 20.0893 26.1 20.0893 26.1C20.0893 26.1 20.0894 26.1 20.0894 26.1C20.0894 26.1 20.0895 26.1 20.0895 26.1C20.0895 26.1 20.0896 26.1 20.0896 26.1C20.0896 26.1 20.0897 26.1 20.0897 26.1C20.0897 26.1 20.0898 26.1 20.0898 26.1C20.0898 26.1 20.0899 26.1 20.0899 26.1C20.09 26.1 20.09 26.1 20.09 26.1V20.1C20.09 20.1 20.09 20.1 20.0899 20.1C20.0899 20.1 20.0898 20.1 20.0898 20.1C20.0898 20.1 20.0897 20.1 20.0897 20.1C20.0897 20.1 20.0896 20.1 20.0896 20.1C20.0896 20.1 20.0895 20.1 20.0895 20.1C20.0895 20.1 20.0894 20.1 20.0894 20.1C20.0894 20.1 20.0893 20.1 20.0893 20.1C20.0893 20.1 20.0892 20.1 20.0892 20.1C20.0892 20.1 20.0891 20.1 20.0891 20.1C20.0891 20.1 20.089 20.1 20.089 20.1C20.089 20.1 20.0889 20.1 20.0889 20.1C20.0889 20.1 20.0888 20.1 20.0888 20.1C20.0888 20.1 20.0888 20.1 20.0887 20.1C20.0887 20.1 20.0887 20.1 20.0886 20.1C20.0886 20.1 20.0886 20.1 20.0885 20.1C20.0885 20.1 20.0885 20.1 20.0884 20.1C20.0884 20.1 20.0884 20.1 20.0883 20.1C20.0883 20.1 20.0883 20.1 20.0882 20.1C20.0882 20.1 20.0882 20.1 20.0881 20.1C20.0881 20.1 20.0881 20.1 20.088 20.1C20.088 20.1 20.088 20.1 20.088 20.1C20.0879 20.1 20.0879 20.1 20.0879 20.1C20.0878 20.1 20.0878 20.1 20.0878 20.1C20.0877 20.1 20.0877 20.1 20.0877 20.1C20.0876 20.1 20.0876 20.1 20.0876 20.1C20.0875 20.1 20.0875 20.1 20.0875 20.1C20.0875 20.1 20.0874 20.1 20.0874 20.1C20.0874 20.1 20.0873 20.1 20.0873 20.1C20.0873 20.1 20.0872 20.1 20.0872 20.1C20.0872 20.1 20.0871 20.1 20.0871 20.1C20.0871 20.1 20.0871 20.1 20.087 20.1C20.087 20.1 20.087 20.1 20.0869 20.1C20.0869 20.1 20.0869 20.1 20.0868 20.1C20.0868 20.1 20.0868 20.1 20.0868 20.1C20.0867 20.1 20.0867 20.1 20.0867 20.1C20.0866 20.1 20.0866 20.1 20.0866 20.1C20.0866 20.1 20.0865 20.1 20.0865 20.1C20.0865 20.1 20.0864 20.1 20.0864 20.1C20.0864 20.1 20.0863 20.1 20.0863 20.1C20.0863 20.1 20.0863 20.1 20.0862 20.1C20.0862 20.1 20.0862 20.1 20.0861 20.1C20.0861 20.1 20.0861 20.1 20.0861 20.1C20.086 20.1 20.086 20.1 20.086 20.1C20.0859 20.1 20.0859 20.1 20.0859 20.1C20.0859 20.1 20.0858 20.1 20.0858 20.1C20.0858 20.1 20.0857 20.1 20.0857 20.1C20.0857 20.1 20.0857 20.1 20.0856 20.1C20.0856 20.1 20.0856 20.1 20.0855 20.1C20.0855 20.1 20.0855 20.1 20.0855 20.1C20.0854 20.1 20.0854 20.1 20.0854 20.1C20.0853 20.1 20.0853 20.1 20.0853 20.1C20.0853 20.1 20.0852 20.1 20.0852 20.1C20.0852 20.1 20.0852 20.1 20.0851 20.1C20.0851 20.1 20.0851 20.1 20.085 20.1C20.085 20.1 20.085 20.1 20.085 20.1C20.0849 20.1 20.0849 20.1 20.0849 20.1C20.0849 20.1 20.0848 20.1 20.0848 20.1C20.0848 20.1 20.0847 20.1 20.0847 20.1C20.0847 20.1 20.0847 20.1 20.0846 20.1C20.0846 20.1 20.0846 20.1 20.0846 20.1C20.0845 20.1 20.0845 20.1 20.0845 20.1C20.0845 20.1 20.0844 20.1 20.0844 20.1C20.0844 20.1 20.0843 20.1 20.0843 20.1C20.0843 20.1 20.0843 20.1 20.0842 20.1C20.0842 20.1 20.0842 20.1 20.0842 20.1C20.0841 20.1 20.0841 20.1 20.0841 20.1C20.0841 20.1 20.084 20.1 20.084 20.1C20.084 20.1 20.084 20.1 20.0839 20.1C20.0839 20.1 20.0839 20.1 20.0839 20.1C20.0838 20.1 20.0838 20.1 20.0838 20.1C20.0838 20.1 20.0837 20.1 20.0837 20.1C20.0837 20.1 20.0837 20.1 20.0836 20.1C20.0836 20.1 20.0836 20.1 20.0835 20.1C20.0835 20.1 20.0835 20.1 20.0835 20.1C20.0834 20.1 20.0834 20.1 20.0834 20.1C20.0834 20.1 20.0833 20.1 20.0833 20.1C20.0833 20.1 20.0833 20.1 20.0833 20.1C20.0832 20.1 20.0832 20.1 20.0832 20.1C20.0832 20.1 20.0831 20.1 20.0831 20.1C20.0831 20.1 20.0831 20.1 20.083 20.1C20.083 20.1 20.083 20.1 20.083 20.1C20.0829 20.1 20.0829 20.1 20.0829 20.1C20.0829 20.1 20.0828 20.1 20.0828 20.1C20.0828 20.1 20.0828 20.1 20.0827 20.1C20.0827 20.1 20.0827 20.1 20.0827 20.1C20.0826 20.1 20.0826 20.1 20.0826 20.1C20.0826 20.1 20.0826 20.1 20.0825 20.1C20.0825 20.1 20.0825 20.1 20.0825 20.1C20.0824 20.1 20.0824 20.1 20.0824 20.1C20.0824 20.1 20.0823 20.1 20.0823 20.1C20.0823 20.1 20.0823 20.1 20.0822 20.1C20.0822 20.1 20.0822 20.1 20.0822 20.1C20.0822 20.1 20.0821 20.1 20.0821 20.1C20.0821 20.1 20.0821 20.1 20.082 20.1C20.082 20.1 20.082 20.1 20.082 20.1C20.082 20.1 20.0819 20.1 20.0819 20.1C20.0819 20.1 20.0819 20.1 20.0818 20.1C20.0818 20.1 20.0818 20.1 20.0818 20.1C20.0817 20.1 20.0817 20.1 20.0817 20.1C20.0817 20.1 20.0817 20.1 20.0816 20.1C20.0816 20.1 20.0816 20.1 20.0816 20.1C20.0815 20.1 20.0815 20.1 20.0815 20.1C20.0815 20.1 20.0815 20.1 20.0814 20.1C20.0814 20.1 20.0814 20.1 20.0814 20.1C20.0814 20.1 20.0813 20.1 20.0813 20.1C20.0813 20.1 20.0813 20.1 20.0812 20.1C20.0812 20.1 20.0812 20.1 20.0812 20.1C20.0812 20.1 20.0811 20.1 20.0811 20.1C20.0811 20.1 20.0811 20.1 20.0811 20.1C20.081 20.1 20.081 20.1 20.081 20.1C20.081 20.1 20.0809 20.1 20.0809 20.1C20.0809 20.1 20.0809 20.1 20.0809 20.1C20.0808 20.1 20.0808 20.1 20.0808 20.1C20.0808 20.1 20.0808 20.1 20.0807 20.1C20.0807 20.1 20.0807 20.1 20.0807 20.1C20.0807 20.1 20.0806 20.1 20.0806 20.1C20.0806 20.1 20.0806 20.1 20.0806 20.1C20.0805 20.1 20.0805 20.1 20.0805 20.1C20.0805 20.1 20.0805 20.1 20.0804 20.1C20.0804 20.1 20.0804 20.1 20.0804 20.1C20.0804 20.1 20.0803 20.1 20.0803 20.1C20.0803 20.1 20.0803 20.1 20.0803 20.1C20.0802 20.1 20.0802 20.1 20.0802 20.1C20.0802 20.1 20.0802 20.1 20.0801 20.1C20.0801 20.1 20.0801 20.1 20.0801 20.1C20.0801 20.1 20.08 20.1 20.08 20.1C20.08 20.1 20.08 20.1 20.08 20.1C20.0799 20.1 20.0799 20.1 20.0799 20.1C20.0799 20.1 20.0799 20.1 20.0798 20.1C20.0798 20.1 20.0798 20.1 20.0798 20.1C20.0798 20.1 20.0797 20.1 20.0797 20.1C20.0797 20.1 20.0797 20.1 20.0797 20.1C20.0797 20.1 20.0796 20.1 20.0796 20.1C20.0796 20.1 20.0796 20.1 20.0796 20.1C20.0795 20.1 20.0795 20.1 20.0795 20.1C20.0795 20.1 20.0795 20.1 20.0794 20.1C20.0794 20.1 20.0794 20.1 20.0794 20.1C20.0794 20.1 20.0794 20.1 20.0793 20.1C20.0793 20.1 20.0793 20.1 20.0793 20.1C20.0793 20.1 20.0792 20.1 20.0792 20.1C20.0792 20.1 20.0792 20.1 20.0792 20.1C20.0792 20.1 20.0791 20.1 20.0791 20.1C20.0791 20.1 20.0791 20.1 20.0791 20.1C20.0791 20.1 20.079 20.1 20.079 20.1C20.079 20.1 20.079 20.1 20.079 20.1C20.0789 20.1 20.0789 20.1 20.0789 20.1C20.0789 20.1 20.0789 20.1 20.0789 20.1C20.0788 20.1 20.0788 20.1 20.0788 20.1C20.0788 20.1 20.0788 20.1 20.0788 20.1C20.0787 20.1 20.0787 20.1 20.0787 20.1C20.0787 20.1 20.0787 20.1 20.0787 20.1C20.0786 20.1 20.0786 20.1 20.0786 20.1C20.0786 20.1 20.0786 20.1 20.0786 20.1C20.0785 20.1 20.0785 20.1 20.0785 20.1C20.0785 20.1 20.0785 20.1 20.0785 20.1C20.0784 20.1 20.0784 20.1 20.0784 20.1C20.0784 20.1 20.0784 20.1 20.0784 20.1C20.0783 20.1 20.0783 20.1 20.0783 20.1C20.0783 20.1 20.0783 20.1 20.0783 20.1C20.0782 20.1 20.0782 20.1 20.0782 20.1C20.0782 20.1 20.0782 20.1 20.0782 20.1C20.0781 20.1 20.0781 20.1 20.0781 20.1C20.0781 20.1 20.0781 20.1 20.0781 20.1C20.078 20.1 20.078 20.1 20.078 20.1C20.078 20.1 20.078 20.1 20.078 20.1C20.078 20.1 20.0779 20.1 20.0779 20.1C20.0779 20.1 20.0779 20.1 20.0779 20.1C20.0779 20.1 20.0778 20.1 20.0778 20.1C20.0778 20.1 20.0778 20.1 20.0778 20.1C20.0778 20.1 20.0777 20.1 20.0777 20.1C20.0777 20.1 20.0777 20.1 20.0777 20.1C20.0777 20.1 20.0777 20.1 20.0776 20.1C20.0776 20.1 20.0776 20.1 20.0776 20.1C20.0776 20.1 20.0776 20.1 20.0776 20.1C20.0775 20.1 20.0775 20.1 20.0775 20.1C20.0775 20.1 20.0775 20.1 20.0775 20.1C20.0775 20.1 20.0774 20.1 20.0774 20.1C20.0774 20.1 20.0774 20.1 20.0774 20.1C20.0774 20.1 20.0773 20.1 20.0773 20.1C20.0773 20.1 20.0773 20.1 20.0773 20.1C20.0773 20.1 20.0773 20.1 20.0772 20.1C20.0772 20.1 20.0772 20.1 20.0772 20.1C20.0772 20.1 20.0772 20.1 20.0772 20.1C20.0771 20.1 20.0771 20.1 20.0771 20.1C20.0771 20.1 20.0771 20.1 20.0771 20.1C20.0771 20.1 20.0771 20.1 20.077 20.1C20.077 20.1 20.077 20.1 20.077 20.1C20.077 20.1 20.077 20.1 20.077 20.1C20.0769 20.1 20.0769 20.1 20.0769 20.1C20.0769 20.1 20.0769 20.1 20.0769 20.1C20.0769 20.1 20.0768 20.1 20.0768 20.1C20.0768 20.1 20.0768 20.1 20.0768 20.1C20.0768 20.1 20.0768 20.1 20.0768 20.1C20.0767 20.1 20.0767 20.1 20.0767 20.1C20.0767 20.1 20.0767 20.1 20.0767 20.1C20.0767 20.1 20.0766 20.1 20.0766 20.1C20.0766 20.1 20.0766 20.1 20.0766 20.1C20.0766 20.1 20.0766 20.1 20.0766 20.1C20.0765 20.1 20.0765 20.1 20.0765 20.1C20.0765 20.1 20.0765 20.1 20.0765 20.1C20.0765 20.1 20.0765 20.1 20.0764 20.1C20.0764 20.1 20.0764 20.1 20.0764 20.1C20.0764 20.1 20.0764 20.1 20.0764 20.1C20.0764 20.1 20.0763 20.1 20.0763 20.1C20.0763 20.1 20.0763 20.1 20.0763 20.1C20.0763 20.1 20.0763 20.1 20.0763 20.1C20.0762 20.1 20.0762 20.1 20.0762 20.1C20.0762 20.1 20.0762 20.1 20.0762 20.1C20.0762 20.1 20.0762 20.1 20.0761 20.1C20.0761 20.1 20.0761 20.1 20.0761 20.1C20.0761 20.1 20.0761 20.1 20.0761 20.1C20.0761 20.1 20.0761 20.1 20.076 20.1C20.076 20.1 20.076 20.1 20.076 20.1C20.076 20.1 20.076 20.1 20.076 20.1C20.076 20.1 20.0759 20.1 20.0759 20.1C20.0759 20.1 20.0759 20.1 20.0759 20.1C20.0759 20.1 20.0759 20.1 20.0759 20.1C20.0759 20.1 20.0758 20.1 20.0758 20.1C20.0758 20.1 20.0758 20.1 20.0758 20.1C20.0758 20.1 20.0758 20.1 20.0758 20.1C20.0758 20.1 20.0757 20.1 20.0757 20.1C20.0757 20.1 20.0757 20.1 20.0757 20.1C20.0757 20.1 20.0757 20.1 20.0757 20.1C20.0757 20.1 20.0756 20.1 20.0756 20.1C20.0756 20.1 20.0756 20.1 20.0756 20.1C20.0756 20.1 20.0756 20.1 20.0756 20.1C20.0756 20.1 20.0755 20.1 20.0755 20.1C20.0755 20.1 20.0755 20.1 20.0755 20.1C20.0755 20.1 20.0755 20.1 20.0755 20.1C20.0755 20.1 20.0755 20.1 20.0754 20.1C20.0754 20.1 20.0754 20.1 20.0754 20.1C20.0754 20.1 20.0754 20.1 20.0754 20.1C20.0754 20.1 20.0754 20.1 20.0754 20.1C20.0753 20.1 20.0753 20.1 20.0753 20.1C20.0753 20.1 20.0753 20.1 20.0753 20.1C20.0753 20.1 20.0753 20.1 20.0753 20.1C20.0753 20.1 20.0752 20.1 20.0752 20.1C20.0752 20.1 20.0752 20.1 20.0752 20.1C20.0752 20.1 20.0752 20.1 20.0752 20.1C20.0752 20.1 20.0752 20.1 20.0751 20.1C20.0751 20.1 20.0751 20.1 20.0751 20.1C20.0751 20.1 20.0751 20.1 20.0751 20.1C20.0751 20.1 20.0751 20.1 20.0751 20.1C20.075 20.1 20.075 20.1 20.075 20.1C20.075 20.1 20.075 20.1 20.075 20.1C20.075 20.1 20.075 20.1 20.075 20.1C20.075 20.1 20.075 20.1 20.0749 20.1C20.0749 20.1 20.0749 20.1 20.0749 20.1C20.0749 20.1 20.0749 20.1 20.0749 20.1C20.0749 20.1 20.0749 20.1 20.0749 20.1C20.0749 20.1 20.0748 20.1 20.0748 20.1C20.0748 20.1 20.0748 20.1 20.0748 20.1C20.0748 20.1 20.0748 20.1 20.0748 20.1C20.0748 20.1 20.0748 20.1 20.0748 20.1C20.0747 20.1 20.0747 20.1 20.0747 20.1C20.0747 20.1 20.0747 20.1 20.0747 20.1C20.0747 20.1 20.0747 20.1 20.0747 20.1C20.0747 20.1 20.0747 20.1 20.0747 20.1C20.0746 20.1 20.0746 20.1 20.0746 20.1C20.0746 20.1 20.0746 20.1 20.0746 20.1C20.0746 20.1 20.0746 20.1 20.0746 20.1C20.0746 20.1 20.0746 20.1 20.0746 20.1C20.0745 20.1 20.0745 20.1 20.0745 20.1C20.0745 20.1 20.0745 20.1 20.0745 20.1C20.0745 20.1 20.0745 20.1 20.0745 20.1C20.0745 20.1 20.0745 20.1 20.0745 20.1C20.0745 20.1 20.0744 20.1 20.0744 20.1C20.0744 20.1 20.0744 20.1 20.0744 20.1C20.0744 20.1 20.0744 20.1 20.0744 20.1C20.0744 20.1 20.0744 20.1 20.0744 20.1C20.0744 20.1 20.0744 20.1 20.0743 20.1C20.0743 20.1 20.0743 20.1 20.0743 20.1C20.0743 20.1 20.0743 20.1 20.0743 20.1C20.0743 20.1 20.0743 20.1 20.0743 20.1C20.0743 20.1 20.0743 20.1 20.0743 20.1C20.0742 20.1 20.0742 20.1 20.0742 20.1C20.0742 20.1 20.0742 20.1 20.0742 20.1C20.0742 20.1 20.0742 20.1 20.0742 20.1C20.0742 20.1 20.0742 20.1 20.0742 20.1C20.0742 20.1 20.0742 20.1 20.0741 20.1C20.0741 20.1 20.0741 20.1 20.0741 20.1C20.0741 20.1 20.0741 20.1 20.0741 20.1C20.0741 20.1 20.0741 20.1 20.0741 20.1C20.0741 20.1 20.0741 20.1 20.0741 20.1C20.0741 20.1 20.0741 20.1 20.074 20.1C20.074 20.1 20.074 20.1 20.074 20.1C20.074 20.1 20.074 20.1 20.074 20.1C20.074 20.1 20.074 20.1 20.074 20.1C20.074 20.1 20.074 20.1 20.074 20.1C20.074 20.1 20.074 20.1 20.0739 20.1C20.0739 20.1 20.0739 20.1 20.0739 20.1C20.0739 20.1 20.0739 20.1 20.0739 20.1C20.0739 20.1 20.0739 20.1 20.0739 20.1C20.0739 20.1 20.0739 20.1 20.0739 20.1C20.0739 20.1 20.0739 20.1 20.0739 20.1C20.0738 20.1 20.0738 20.1 20.0738 20.1C20.0738 20.1 20.0738 20.1 20.0738 20.1C20.0738 20.1 20.0738 20.1 20.0738 20.1C20.0738 20.1 20.0738 20.1 20.0738 20.1C20.0738 20.1 20.0738 20.1 20.0738 20.1C20.0738 20.1 20.0738 20.1 20.0737 20.1C20.0737 20.1 20.0737 20.1 20.0737 20.1C20.0737 20.1 20.0737 20.1 20.0737 20.1C20.0737 20.1 20.0737 20.1 20.0737 20.1C20.0737 20.1 20.0737 20.1 20.0737 20.1C20.0737 20.1 20.0737 20.1 20.0737 20.1C20.0737 20.1 20.0736 20.1 20.0736 20.1C20.0736 20.1 20.0736 20.1 20.0736 20.1C20.0736 20.1 20.0736 20.1 20.0736 20.1C20.0736 20.1 20.0736 20.1 20.0736 20.1C20.0736 20.1 20.0736 20.1 20.0736 20.1C20.0736 20.1 20.0736 20.1 20.0736 20.1C20.0736 20.1 20.0736 20.1 20.0735 20.1C20.0735 20.1 20.0735 20.1 20.0735 20.1C20.0735 20.1 20.0735 20.1 20.0735 20.1C20.0735 20.1 20.0735 20.1 20.0735 20.1C20.0735 20.1 20.0735 20.1 20.0735 20.1C20.0735 20.1 20.0735 20.1 20.0735 20.1C20.0735 20.1 20.0735 20.1 20.0735 20.1C20.0735 20.1 20.0734 20.1 20.0734 20.1C20.0734 20.1 20.0734 20.1 20.0734 20.1C20.0734 20.1 20.0734 20.1 20.0734 20.1C20.0734 20.1 20.0734 20.1 20.0734 20.1C20.0734 20.1 20.0734 20.1 20.0734 20.1C20.0734 20.1 20.0734 20.1 20.0734 20.1C20.0734 20.1 20.0734 20.1 20.0734 20.1C20.0734 20.1 20.0733 20.1 20.0733 20.1C20.0733 20.1 20.0733 20.1 20.0733 20.1C20.0733 20.1 20.0733 20.1 20.0733 20.1C20.0733 20.1 20.0733 20.1 20.0733 20.1C20.0733 20.1 20.0733 20.1 20.0733 20.1C20.0733 20.1 20.0733 20.1 20.0733 20.1C20.0733 20.1 20.0733 20.1 20.0733 20.1C20.0733 20.1 20.0733 20.1 20.0733 20.1C20.0733 20.1 20.0732 20.1 20.0732 20.1C20.0732 20.1 20.0732 20.1 20.0732 20.1C20.0732 20.1 20.0732 20.1 20.0732 20.1C20.0732 20.1 20.0732 20.1 20.0732 20.1C20.0732 20.1 20.0732 20.1 20.0732 20.1C20.0732 20.1 20.0732 20.1 20.0732 20.1C20.0732 20.1 20.0732 20.1 20.0732 20.1C20.0732 20.1 20.0732 20.1 20.0732 20.1C20.0732 20.1 20.0732 20.1 20.0731 20.1C20.0731 20.1 20.0731 20.1 20.0731 20.1C20.0731 20.1 20.0731 20.1 20.0731 20.1C20.0731 20.1 20.0731 20.1 20.0731 20.1C20.0731 20.1 20.0731 20.1 20.0731 20.1C20.0731 20.1 20.0731 20.1 20.0731 20.1C20.0731 20.1 20.0731 20.1 20.0731 20.1C20.0731 20.1 20.0731 20.1 20.0731 20.1C20.0731 20.1 20.0731 20.1 20.0731 20.1C20.0731 20.1 20.0731 20.1 20.0731 20.1C20.0731 20.1 20.073 20.1 20.073 20.1C20.073 20.1 20.073 20.1 20.073 20.1C20.073 20.1 20.073 20.1 20.073 20.1C20.073 20.1 20.073 20.1 20.073 20.1C20.073 20.1 20.073 20.1 20.073 20.1C20.073 20.1 20.073 20.1 20.073 20.1C20.073 20.1 20.073 20.1 20.073 20.1C20.073 20.1 20.073 20.1 20.073 20.1C20.073 20.1 20.073 20.1 20.073 20.1C20.073 20.1 20.073 20.1 20.073 20.1C20.073 20.1 20.073 20.1 20.073 20.1C20.0729 20.1 20.0729 20.1 20.0729 20.1C20.0729 20.1 20.0729 20.1 20.0729 20.1C20.0729 20.1 20.0729 20.1 20.0729 20.1C20.0729 20.1 20.0729 20.1 20.0729 20.1C20.0729 20.1 20.0729 20.1 20.0729 20.1C20.0729 20.1 20.0729 20.1 20.0729 20.1C20.0729 20.1 20.0729 20.1 20.0729 20.1C20.0729 20.1 20.0729 20.1 20.0729 20.1C20.0729 20.1 20.0729 20.1 20.0729 20.1C20.0729 20.1 20.0729 20.1 20.0729 20.1C20.0729 20.1 20.0729 20.1 20.0729 20.1C20.0729 20.1 20.0729 20.1 20.0729 20.1C20.0729 20.1 20.0728 20.1 20.0728 20.1C20.0728 20.1 20.0728 20.1 20.0728 20.1C20.0728 20.1 20.0728 20.1 20.0728 20.1C20.0728 20.1 20.0728 20.1 20.0728 20.1C20.0728 20.1 20.0728 20.1 20.0728 20.1C20.0728 20.1 20.0728 20.1 20.0728 20.1C20.0728 20.1 20.0728 20.1 20.0728 20.1C20.0728 20.1 20.0728 20.1 20.0728 20.1C20.0728 20.1 20.0728 20.1 20.0728 20.1C20.0728 20.1 20.0728 20.1 20.0728 20.1C20.0728 20.1 20.0728 20.1 20.0728 20.1C20.0728 20.1 20.0728 20.1 20.0728 20.1C20.0728 20.1 20.0728 20.1 20.0728 20.1C20.0728 20.1 20.0728 20.1 20.0728 20.1C20.0728 20.1 20.0728 20.1 20.0728 20.1C20.0728 20.1 20.0728 20.1 20.0728 20.1C20.0727 20.1 20.0727 20.1 20.0727 20.1C20.0727 20.1 20.0727 20.1 20.0727 20.1C20.0727 20.1 20.0727 20.1 20.0727 20.1C20.0727 20.1 20.0727 20.1 20.0727 20.1C20.0727 20.1 20.0727 20.1 20.0727 20.1C20.0727 20.1 20.0727 20.1 20.0727 20.1C20.0727 20.1 20.0727 20.1 20.0727 20.1C20.0727 20.1 20.0727 20.1 20.0727 20.1C20.0727 20.1 20.0727 20.1 20.0727 20.1C20.0727 20.1 20.0727 20.1 20.0727 20.1C20.0727 20.1 20.0727 20.1 20.0727 20.1C20.0727 20.1 20.0727 20.1 20.0727 20.1C20.0727 20.1 20.0727 20.1 20.0727 20.1C20.0727 20.1 20.0727 20.1 20.0727 20.1C20.0727 20.1 20.0727 20.1 20.0727 20.1C20.0727 20.1 20.0727 20.1 20.0727 20.1C20.0727 20.1 20.0727 20.1 20.0727 20.1C20.0727 20.1 20.0727 20.1 20.0727 20.1C20.0727 20.1 20.0727 20.1 20.0727 20.1C20.0727 20.1 20.0727 20.1 20.0727 20.1C20.0727 20.1 20.0727 20.1 20.0727 20.1C20.0726 20.1 20.0726 20.1 20.0726 20.1C20.0726 20.1 20.0726 20.1 20.0726 20.1C20.0726 20.1 20.0726 20.1 20.0726 20.1C20.0726 20.1 20.0726 20.1 20.0726 20.1C20.0726 20.1 20.0726 20.1 20.0726 20.1C20.0726 20.1 20.0726 20.1 20.0726 20.1C20.0726 20.1 20.0726 20.1 20.0726 20.1C20.0726 20.1 20.0726 20.1 20.0726 20.1C20.0726 20.1 20.0726 20.1 20.0726 20.1C20.0726 20.1 20.0726 20.1 20.0726 20.1C20.0726 20.1 20.0726 20.1 20.0726 20.1C20.0726 20.1 20.0726 20.1 20.0726 20.1C20.0726 20.1 20.0726 20.1 20.0726 20.1C20.0726 20.1 20.0726 20.1 20.0726 20.1C20.0726 20.1 20.0726 20.1 20.0726 20.1C20.0726 20.1 20.0726 20.1 20.0726 20.1C20.0726 20.1 20.0726 20.1 20.0726 20.1C20.0726 20.1 20.0726 20.1 20.0726 20.1C20.0726 20.1 20.0726 20.1 20.0726 20.1C20.0726 20.1 20.0726 20.1 20.0726 20.1C20.0726 20.1 20.0726 20.1 20.0726 20.1C20.0726 20.1 20.0726 20.1 20.0726 20.1C20.0726 20.1 20.0726 20.1 20.0726 20.1C20.0726 20.1 20.0726 20.1 20.0726 20.1C20.0726 20.1 20.0726 20.1 20.0726 20.1C20.0726 20.1 20.0726 20.1 20.0726 20.1C20.0726 20.1 20.0726 20.1 20.0726 20.1C20.0726 20.1 20.0726 20.1 20.0726 20.1C20.0726 20.1 20.0726 20.1 20.0726 20.1C20.0726 20.1 20.0726 20.1 20.0726 20.1C20.0726 20.1 20.0726 20.1 20.0726 20.1C20.0726 20.1 20.0726 20.1 20.0726 20.1C20.0726 20.1 20.0726 20.1 20.0726 20.1C20.0726 20.1 20.0726 20.1 20.0726 20.1C20.0726 20.1 20.0726 20.1 20.0726 20.1C20.0726 20.1 20.0726 20.1 20.0726 20.1C20.0726 20.1 20.0726 20.1 20.0726 20.1C20.0726 20.1 20.0726 20.1 20.0726 20.1C20.0726 20.1 20.0725 20.1 20.0725 20.1C20.0725 20.1 20.0725 20.1 20.0725 20.1C20.0725 20.1 20.0725 20.1 20.0725 20.1C20.0725 20.1 20.0725 20.1 20.0725 20.1C20.0725 20.1 20.0725 20.1 20.0725 20.1C20.0725 20.1 20.0725 20.1 20.0725 20.1C20.0725 20.1 20.0725 20.1 20.0725 20.1C20.0725 20.1 20.0725 20.1 20.0725 20.1C20.0725 20.1 20.0725 20.1 20.0725 20.1C20.0725 20.1 20.0725 20.1 20.0725 20.1C20.0725 20.1 20.0725 20.1 20.0725 20.1C20.0725 20.1 20.0725 20.1 20.0725 20.1C20.0725 20.1 20.0725 20.1 20.0725 20.1C20.0725 20.1 20.0725 20.1 20.0725 20.1C20.0725 20.1 20.0725 20.1 20.0725 20.1C20.0725 20.1 20.0725 20.1 20.0725 20.1C20.0725 20.1 20.0725 20.1 20.0725 20.1C20.0725 20.1 20.0725 20.1 20.0725 20.1C20.0725 20.1 20.0725 20.1 20.0725 20.1C20.0725 20.1 20.0725 20.1 20.0725 20.1C20.0725 20.1 20.0725 20.1 20.0725 20.1C20.0725 20.1 20.0725 20.1 20.0725 20.1C20.0725 20.1 20.0725 20.1 20.0725 20.1C20.0725 20.1 20.0725 20.1 20.0725 20.1C20.0725 20.1 20.0725 20.1 20.0725 20.1C20.0725 20.1 20.0725 20.1 20.0725 20.1C20.0725 20.1 20.0725 20.1 20.0725 20.1C20.0725 20.1 20.0725 20.1 20.0725 20.1C20.0725 20.1 20.0725 20.1 20.0725 20.1C20.0725 20.1 20.0725 20.1 20.0725 20.1C20.0725 20.1 20.0725 20.1 20.0725 20.1C20.0725 20.1 20.0725 20.1 20.0725 20.1C20.0725 20.1 20.0725 20.1 20.0725 20.1C20.0725 20.1 20.0725 20.1 20.0725 20.1C20.0725 20.1 20.0725 20.1 20.0725 20.1C20.0725 20.1 20.0725 20.1 20.0725 20.1C20.0725 20.1 20.0725 20.1 20.0725 20.1C20.0725 20.1 20.0725 20.1 20.0725 20.1H20.0725C20.0725 20.1 20.0725 20.1 20.0725 20.1C20.0725 20.1 20.0725 20.1 20.0725 20.1C20.0725 20.1 20.0725 20.1 20.0725 20.1H20.0725C20.0725 20.1 20.0725 20.1 20.0725 20.1C20.0725 20.1 20.0725 20.1 20.0725 20.1C20.0725 20.1 20.0725 20.1 20.0725 20.1H20.0725C20.0725 20.1 20.0725 20.1 20.0725 20.1H20.0725C20.0725 20.1 20.0725 20.1 20.0725 20.1C20.0725 20.1 20.0725 20.1 20.0725 20.1C20.0725 23.1 20.0725 26.1 20.0725 23.1ZM20.06 26.0998L28.81 26.1873L28.87 20.1876L20.12 20.1001L20.06 26.0998ZM28.84 26.1875C27.8883 26.1875 27.1129 25.411 27.1359 24.4461L33.1342 24.5889C33.1921 22.154 31.2267 20.1875 28.84 20.1875V26.1875ZM27.1359 24.4443C27.1571 23.5763 27.8697 22.8125 28.8225 22.8125V28.8125C31.2104 28.8125 33.078 26.8937 33.1341 24.5906L27.1359 24.4443Z" fill="white" mask="url(#path-7-inside-4_2_89)"/>
<mask id="path-9-inside-5_2_89" fill="white">
<path d="M25.3225 18.8125H20.0725C19.355 18.8125 18.76 18.2175 18.76 17.5C18.76 16.7825 19.355 16.1875 20.0725 16.1875H25.3225C26.04 16.1875 26.635 16.7825 26.635 17.5C26.635 18.2175 26.04 18.8125 25.3225 18.8125Z"/>
</mask>
<path d="M25.3225 15.8125H20.0725V21.8125H25.3225V15.8125ZM20.0725 15.8125C21.0119 15.8125 21.76 16.5606 21.76 17.5H15.76C15.76 19.8744 17.6982 21.8125 20.0725 21.8125V15.8125ZM21.76 17.5C21.76 18.4394 21.0119 19.1875 20.0725 19.1875V13.1875C17.6982 13.1875 15.76 15.1256 15.76 17.5H21.76ZM20.0725 19.1875H25.3225V13.1875H20.0725V19.1875ZM25.3225 19.1875C24.3832 19.1875 23.635 18.4394 23.635 17.5H29.635C29.635 15.1256 27.6969 13.1875 25.3225 13.1875V19.1875ZM23.635 17.5C23.635 16.5606 24.3832 15.8125 25.3225 15.8125V21.8125C27.6969 21.8125 29.635 19.8744 29.635 17.5H23.635Z" fill="white" mask="url(#path-9-inside-5_2_89)"/>
<mask id="path-11-inside-6_2_89" fill="white">
<path d="M9.60749 39.76C8.01499 39.76 6.50999 38.78 5.47749 37.065L4.04249 34.685C3.51749 33.81 3.11499 32.375 3.11499 31.36V8.6625C3.11499 5.0925 6.01999 2.1875 9.58999 2.1875C13.16 2.1875 16.065 5.0925 16.065 8.6625V31.3425C16.065 32.3575 15.6625 33.7925 15.1375 34.6675L13.7025 37.0475C12.705 38.78 11.2 39.76 9.60749 39.76ZM9.60749 4.8125C7.48999 4.8125 5.75749 6.545 5.75749 8.6625V31.3425C5.75749 31.885 6.01999 32.8475 6.29999 33.32L7.73499 35.7C8.27749 36.61 8.95999 37.1175 9.60749 37.1175C10.255 37.1175 10.9375 36.5925 11.48 35.7L12.915 33.32C13.195 32.8475 13.4575 31.885 13.4575 31.3425V8.6625C13.4575 6.545 11.725 4.8125 9.60749 4.8125Z"/>
</mask>
<path d="M5.47749 37.065L8.04765 35.5177L8.04663 35.516L5.47749 37.065ZM4.04249 34.685L1.47001 36.2285L1.47335 36.234L4.04249 34.685ZM15.1375 34.6675L17.7066 36.2165L17.71 36.211L15.1375 34.6675ZM13.7025 37.0475L11.1334 35.4985L11.1177 35.5244L11.1026 35.5506L13.7025 37.0475ZM6.29999 33.32L3.71912 34.8494L3.72495 34.8592L3.73085 34.869L6.29999 33.32ZM7.73499 35.7L10.3118 34.1638L10.308 34.1574L10.3041 34.151L7.73499 35.7ZM11.48 35.7L14.0436 37.2583L14.0491 37.249L11.48 35.7ZM12.915 33.32L15.4841 34.869L15.49 34.8592L15.4959 34.8494L12.915 33.32ZM9.60749 36.76C9.34221 36.76 8.69619 36.5949 8.04765 35.5177L2.90733 38.6123C4.32379 40.9651 6.68777 42.76 9.60749 42.76V36.76ZM8.04663 35.516L6.61163 33.136L1.47335 36.234L2.90835 38.614L8.04663 35.516ZM6.61497 33.1415C6.36488 32.7247 6.11499 31.822 6.11499 31.36H0.11499C0.11499 32.928 0.670095 34.8953 1.47001 36.2285L6.61497 33.1415ZM6.11499 31.36V8.6625H0.11499V31.36H6.11499ZM6.11499 8.6625C6.11499 6.74935 7.67684 5.1875 9.58999 5.1875V-0.8125C4.36314 -0.8125 0.11499 3.43565 0.11499 8.6625H6.11499ZM9.58999 5.1875C11.5031 5.1875 13.065 6.74935 13.065 8.6625H19.065C19.065 3.43564 14.8168 -0.8125 9.58999 -0.8125V5.1875ZM13.065 8.6625V31.3425H19.065V8.6625H13.065ZM13.065 31.3425C13.065 31.8045 12.8151 32.7072 12.565 33.124L17.71 36.211C18.5099 34.8778 19.065 32.9105 19.065 31.3425H13.065ZM12.5684 33.1185L11.1334 35.4985L16.2716 38.5965L17.7066 36.2165L12.5684 33.1185ZM11.1026 35.5506C10.4983 36.6002 9.86945 36.76 9.60749 36.76V42.76C12.5305 42.76 14.9117 40.9598 16.3024 38.5444L11.1026 35.5506ZM9.60749 1.8125C5.83314 1.8125 2.75749 4.88815 2.75749 8.6625H8.75749C8.75749 8.20185 9.14684 7.8125 9.60749 7.8125V1.8125ZM2.75749 8.6625V31.3425H8.75749V8.6625H2.75749ZM2.75749 31.3425C2.75749 31.9937 2.89646 32.6612 3.03024 33.1498C3.16418 33.6389 3.38522 34.286 3.71912 34.8494L8.88086 31.7906C8.90532 31.8319 8.91532 31.854 8.91346 31.85C8.91236 31.8477 8.90556 31.8328 8.8945 31.8042C8.8716 31.7451 8.84369 31.6618 8.81724 31.5652C8.79078 31.4686 8.77243 31.3829 8.76206 31.3207C8.75706 31.2907 8.75535 31.2747 8.75513 31.2725C8.75474 31.2685 8.75749 31.2934 8.75749 31.3425H2.75749ZM3.73085 34.869L5.16585 37.249L10.3041 34.151L8.86913 31.771L3.73085 34.869ZM5.15815 37.2362C5.90407 38.4874 7.37836 40.1175 9.60749 40.1175V34.1175C10.0881 34.1175 10.3733 34.3059 10.4371 34.3539C10.4986 34.4003 10.4348 34.3701 10.3118 34.1638L5.15815 37.2362ZM9.60749 40.1175C11.8554 40.1175 13.3243 38.4415 14.0436 37.2582L8.91642 34.1418C8.78926 34.351 8.71839 34.3926 8.76745 34.3553C8.81419 34.3197 9.10331 34.1175 9.60749 34.1175V40.1175ZM14.0491 37.249L15.4841 34.869L10.3459 31.771L8.91085 34.151L14.0491 37.249ZM15.4959 34.8494C15.8298 34.286 16.0508 33.6389 16.1847 33.1498C16.3185 32.6612 16.4575 31.9937 16.4575 31.3425H10.4575C10.4575 31.2934 10.4602 31.2685 10.4598 31.2725C10.4596 31.2747 10.4579 31.2907 10.4529 31.3207C10.4426 31.3829 10.4242 31.4686 10.3977 31.5652C10.3713 31.6618 10.3434 31.7451 10.3205 31.8042C10.3094 31.8328 10.3026 31.8477 10.3015 31.85C10.2997 31.854 10.3097 31.8319 10.3341 31.7906L15.4959 34.8494ZM16.4575 31.3425V8.6625H10.4575V31.3425H16.4575ZM16.4575 8.6625C16.4575 4.88814 13.3818 1.8125 9.60749 1.8125V7.8125C10.0681 7.8125 10.4575 8.20185 10.4575 8.6625H16.4575Z" fill="white" mask="url(#path-11-inside-6_2_89)"/>
<mask id="path-13-inside-7_2_89" fill="white">
<path d="M14.77 13.5625H4.42749C3.70999 13.5625 3.11499 12.9675 3.11499 12.25C3.11499 11.5325 3.70999 10.9375 4.42749 10.9375H14.77C15.4875 10.9375 16.0825 11.5325 16.0825 12.25C16.0825 12.9675 15.4875 13.5625 14.77 13.5625Z"/>
</mask>
<path d="M14.77 10.5625H4.42749V16.5625H14.77V10.5625ZM4.42749 10.5625C5.36684 10.5625 6.11499 11.3106 6.11499 12.25H0.11499C0.11499 14.6244 2.05314 16.5625 4.42749 16.5625V10.5625ZM6.11499 12.25C6.11499 13.1894 5.36684 13.9375 4.42749 13.9375V7.9375C2.05314 7.9375 0.11499 9.87565 0.11499 12.25H6.11499ZM4.42749 13.9375H14.77V7.9375H4.42749V13.9375ZM14.77 13.9375C13.8306 13.9375 13.0825 13.1894 13.0825 12.25H19.0825C19.0825 9.87565 17.1443 7.9375 14.77 7.9375V13.9375ZM13.0825 12.25C13.0825 11.3106 13.8306 10.5625 14.77 10.5625V16.5625C17.1443 16.5625 19.0825 14.6244 19.0825 12.25H13.0825Z" fill="white" mask="url(#path-13-inside-7_2_89)"/>
</svg>
