<svg width="48" height="48" viewBox="0 0 48 48" fill="none" xmlns="http://www.w3.org/2000/svg">
<path d="M36 32.02C37.1 32.02 38 32.92 38 34.02V36C38 40.4 35 44 30 44H18C13 44 10 40.4 10 36V34.02C10 32.92 10.9 32.02 12 32.02H36Z" fill="white"/>
<path d="M38 12V27C38 28.1 37.1 29 36 29H12C10.9 29 10 28.1 10 27V12C10 7.60003 13 4.00003 18 4.00003H30C35 4.00003 38 7.60003 38 12Z" fill="white"/>
<path d="M6 41.5C5.18 41.5 4.5 40.82 4.5 40V7.99997C4.5 7.17997 5.18 6.49997 6 6.49997C6.82 6.49997 7.5 7.17997 7.5 7.99997V40C7.5 40.82 6.82 41.5 6 41.5Z" fill="white"/>
<path d="M42 41.5C41.18 41.5 40.5 40.82 40.5 40V7.99997C40.5 7.17997 41.18 6.49997 42 6.49997C42.82 6.49997 43.5 7.17997 43.5 7.99997V40C43.5 40.82 42.82 41.5 42 41.5Z" fill="white"/>
</svg>
