<svg width="52" height="52" viewBox="0 0 52 52" fill="none" xmlns="http://www.w3.org/2000/svg">
<path d="M19.5 28.1667C18.07 28.8817 16.8783 29.9434 15.99 31.265C15.4917 32.0234 15.4917 32.9767 15.99 33.735C16.8783 35.0567 18.07 36.1184 19.5 36.8334" stroke="white" stroke-width="3" stroke-linecap="round" stroke-linejoin="round"/>
<path d="M32.955 28.1667C34.385 28.8817 35.5767 29.9434 36.465 31.265C36.9633 32.0234 36.9633 32.9767 36.465 33.735C35.5767 35.0567 34.385 36.1184 32.955 36.8334" stroke="white" stroke-width="3" stroke-linecap="round" stroke-linejoin="round"/>
<path d="M4.33334 28.1666V32.5C4.33334 43.3333 8.66668 47.6666 19.5 47.6666H32.5C43.3333 47.6666 47.6667 43.3333 47.6667 32.5V19.5C47.6667 8.66665 43.3333 4.33331 32.5 4.33331H19.5C8.66668 4.33331 4.33334 8.66665 4.33334 19.5" stroke="white" stroke-width="3" stroke-linecap="round" stroke-linejoin="round"/>
<path d="M4.83167 17.355L46.475 17.3333" stroke="white" stroke-width="3" stroke-linecap="round" stroke-linejoin="round"/>
</svg>
